<svg xmlns="http://www.w3.org/2000/svg" viewBox="-1 -1 566 393" role="img" stroke-width="2" stroke-linecap="round" stroke-linejoin="round" stroke-dasharray="none" >
<defs>
  <style><![CDATA[
  ]]></style>

  <clipPath
     clipPathUnits="userSpaceOnUse"
     id="gateway-x-clippath">
    <rect width="22" height="22" x="14" y="14" />
  </clipPath>

  <marker id="sequence-flow-head" fill="context-stroke" stroke="none" markerWidth="12" markerHeight="12" refX="6" refY="6" orient="auto-start-reverse" markerUnits="userSpaceOnUse" >
    <path d="M 0 0 L 12 6 L 0 12 Z" stroke-width="2" />
  </marker>

  <marker id="data-association-head" markerWidth="9" markerHeight="9" refX="9" refY="4.5" fill="none" stroke="context-stroke" orient="auto-start-reverse" markerUnits="userSpaceOnUse" >
    <path d="M 0 0 L 9 4.5 L 0 9" stroke-width="1.6" />
  </marker>

  <marker id="message-start" refX="0" refY="2" markerWidth="8" markerHeight="8" stroke="context-stroke" fill="#fff" orient="auto-start-reverse" overflow="visible" markerUnits="userSpaceOnUse" >
    <circle cx="2" cy="2" r="4" stroke-width="2" />
  </marker>

  <marker id="message-flow-head" fill="none" stroke="context-stroke" markerWidth="10" markerHeight="12" refX="0" refY="6" orient="auto-start-reverse" overflow="visible" markerUnits="userSpaceOnUse" >
    <path d="M 0 0 L 10 6 L 0 12 Z" style="stroke-linecap:round;stroke-linejoin:round;stroke-dasharray:none" stroke-width="2" />
  </marker>

  <symbol id="envelope-outline" viewBox="0 0 36 36" overflow="visible">
      <path
         d="M 8,11 H 28 V 25 H 8 Z"
         fill="none"
         stroke="inherit"
         style="stroke-width:1.7;stroke-linecap:round;stroke-linejoin:round;stroke-dasharray:none"
         />
      <path
         d="M 8,11.318781 18,17 28,11.318781"
         fill="none"
         stroke="inherit"
         style="stroke-width:1.7;stroke-linecap:round;stroke-linejoin:round;stroke-dasharray:none"
         />
  </symbol>

  <symbol id="envelope-filled" viewBox="0 0 36 36" overflow="visible">
  <path
     stroke="none"
     fill="inherit"
     style="baseline-shift:baseline;display:inline;overflow:visible;vector-effect:none;stroke-linecap:round;stroke-linejoin:round;enable-background:accumulate;stop-color:inherit"
     d="M 8,10.150391 C 7.530883,10.150653 7.150653,10.530883 7.150391,11 V 25 C 7.150653,25.469117 7.530883,25.849347 8,25.849609 H 28 C 28.469117,25.849347 28.849347,25.469117 28.849609,25 V 11 C 28.849347,10.530883 28.469117,10.150653 28,10.150391 Z m 0.3066406,0.298828 a 0.85000002,0.85000002 0 0 1 0.4238282,0.117187 L 18,16.013672 27.269531,10.566406 a 0.85000002,0.85000002 0 0 1 1.164063,0.302735 0.85000002,0.85000002 0 0 1 -0.302735,1.164062 l -9.701172,5.699219 a 0.85008502,0.85008502 0 0 1 -0.859375,0 L 7.869141,12.033203 a 0.85000002,0.85000002 0 0 1 -0.302735,-1.164062 0.85000002,0.85000002 0 0 1 0.5195315,-0.392578 0.85000002,0.85000002 0 0 1 0.2207031,-0.02734 z" />
  </symbol>

  <!-- Task icons. All are authored in a 20x20 viewport. -->
  <symbol id="task-user" viewBox="0 0 20 20" overflow="visible">
    <circle cx="10" cy="5" r="3" fill="none" stroke-width="1" />
    <path d="M 17,17 C 17,7 3,7 3,17 Z" fill="none" stroke="inherit" stroke-width="1" />
    <path fill="none" stroke="inherit" d="M 6,17 C 6,15 6,14 7,13" stroke-width="0.7" />
    <path fill="none" stroke="inherit" d="m 14,17 c 0,-2 0,-3 -1,-4" stroke-width="0.7" />
  </symbol>

  <symbol id="task-manual" viewBox="0 0 20 20" overflow="visible">
  <path style="fill:none;stroke:inherit;stroke-width:0.8;stroke-linecap:round;stroke-linejoin:round"
     d="M 2,6 3,5 h 7 c 0.273837,1.0273837 0,1.3333333 -2,2 H 5 15 c 1,0 1,2 0,2 h -7 8 c 1,0 1,2 0,2 h -7 7 c 1,0 1,1.939827 0,1.939827 H 9 L 14,13 c 1,0 1,1.803733 0,1.803733 0,0 -7.00008,-0.02384 -9,0 C 3.6785895,14.819482 2,14 2,14" />
  </symbol>

  <symbol id="task-service" viewBox="0 0 20 20" overflow="visible">
    <g
       transform="translate(0.041016,0.43847664)">
      <path
         id="path23"
         style="fill:#cccccc;stroke:inherit;stroke-width:0.8;stroke-linecap:round;stroke-linejoin:round"
         d="M 9.066406,2.0898437 C 8.785746,2.5974027 8.406338,3 8,3 7.595606,3 7.239756,2.6017747 6.980468,2.0976562 A 6,6 0 0 0 4.6191402,3.0761718 C 4.7917279,3.6153969 4.82095,4.1477996 4.5351559,4.4335937 4.2480065,4.720743 3.6972927,4.7048591 3.1406246,4.5449218 A 6,6 0 0 0 2.1386715,6.9375 c 0.5041758,0.259293 0.9023437,0.6170582 0.9023437,1.0214843 0,0.4063849 -0.4025156,0.7857368 -0.9101562,1.0664063 a 6,6 0 0 0 0.984375,2.4003904 c 0.2631149,-0.08457 0.5254974,-0.134733 0.7578125,-0.130859 0.2439954,0.0041 0.4551159,0.0684 0.6015625,0.214843 0.2871649,0.287166 0.2712897,0.839307 0.1113281,1.396485 A 6,6 0 0 0 6.980468,13.908203 C 7.239723,13.404452 7.595814,13.005859 8,13.005859 c 0.406132,0 0.785789,0.40101 1.066406,0.908203 a 6,6 0 0 0 2.435547,-1.007812 c -0.160414,-0.557144 -0.177774,-1.109336 0.109375,-1.396485 0.146446,-0.146446 0.357567,-0.210775 0.601562,-0.214843 0.232391,-0.0039 0.494342,0.04624 0.757813,0.130859 a 6,6 0 0 0 0.984375,-2.4003904 c -0.507136,-0.2806103 -0.908203,-0.660307 -0.908203,-1.0664063 0,-0.4041392 0.398675,-0.7602839 0.902343,-1.0195312 A 6,6 0 0 0 12.947265,4.5449218 C 12.390166,4.7048219 11.837907,4.7207192 11.550781,4.4335937 11.265003,4.1478157 11.293759,3.6153658 11.466797,3.0761718 A 6,6 0 0 0 9.066406,2.0898437 Z m -1.023438,2.4375 A 3.4752038,3.4752038 0 0 1 11.517578,8.0019531 3.4752038,3.4752038 0 0 1 8.042968,11.476562 3.4752038,3.4752038 0 0 1 4.568359,8.0019531 3.4752038,3.4752038 0 0 1 8.042968,4.5273437 Z" />
      <path
         id="path23-2"
         style="fill:#cccccc;stroke:inherit;stroke-width:0.8;stroke-linecap:round;stroke-linejoin:round"
         d="m 12.898437,5.2089849 c -0.28066,0.507559 -0.660068,0.9101563 -1.066406,0.9101563 -0.404394,0 -0.760244,-0.3982253 -1.019532,-0.9023438 A 6,6 0 0 0 8.451171,6.195313 C 8.623759,6.7345381 8.652981,7.2669408 8.367191,7.5527349 8.080042,7.8398842 7.529328,7.8240003 6.97266,7.664063 a 6,6 0 0 0 -1.0019575,2.392578 c 0.5041755,0.259293 0.9023435,0.617058 0.9023435,1.021484 0,0.406385 -0.402515,0.785737 -0.910156,1.066407 a 6,6 0 0 0 0.984375,2.40039 c 0.263115,-0.08457 0.525497,-0.134733 0.757813,-0.130859 0.243995,0.0041 0.455115,0.0684 0.601562,0.214843 0.287165,0.287166 0.27129,0.839307 0.111328,1.396485 a 6,6 0 0 0 2.394531,1.001953 C 11.071754,16.523593 11.427845,16.125 11.832031,16.125 c 0.406132,0 0.785789,0.40101 1.066406,0.908203 a 6,6 0 0 0 2.435547,-1.007812 c -0.160414,-0.557144 -0.177774,-1.109336 0.109375,-1.396485 0.146446,-0.146446 0.357567,-0.210775 0.601562,-0.214843 0.232391,-0.0039 0.494342,0.04624 0.757813,0.130859 a 6,6 0 0 0 0.984375,-2.40039 c -0.507136,-0.280611 -0.908203,-0.660307 -0.908203,-1.066407 0,-0.404139 0.398675,-0.760283 0.902343,-1.019531 A 6,6 0 0 0 16.779296,7.664063 C 16.222197,7.8239631 15.669938,7.8398604 15.382812,7.5527349 15.097034,7.2669569 15.12579,6.734507 15.298828,6.195313 A 6,6 0 0 0 12.898437,5.2089849 Z m -1.023438,2.4375 a 3.4752038,3.4752038 0 0 1 3.47461,3.4746091 3.4752038,3.4752038 0 0 1 -3.47461,3.474609 3.4752038,3.4752038 0 0 1 -3.474609,-3.474609 3.4752038,3.4752038 0 0 1 3.474609,-3.4746091 z" />
    </g>
  </symbol>

  <symbol id="task-script" viewBox="0 0 20 20" overflow="visible">
      <path
         style="fill:#cccccc;stroke:inherit;stroke-width:0.8;stroke-linecap:round;stroke-linejoin:round"
         d="M 6.1728012,4 H 13.694508"
         />
      <path
         style="fill:#cccccc;stroke:inherit;stroke-width:0.8;stroke-linecap:round;stroke-linejoin:round"
         d="M 5.8271988,7 H 13.348908"
         />
      <path
         style="fill:#cccccc;stroke:inherit;stroke-width:0.8;stroke-linecap:round;stroke-linejoin:round"
         d="M 7.8238944,13 H 15.3456"
          />
      <path
         style="fill:#cccccc;stroke:inherit;stroke-width:0.8;stroke-linecap:round;stroke-linejoin:round"
         d="M 7.3054908,16 H 14.8272"
          />
      <path
         style="fill:#cccccc;stroke:inherit;stroke-width:0.8;stroke-linecap:round;stroke-linejoin:round"
         d="m 6.807143,10 h 7.521711"
          />
  </symbol>

  <symbol id="task-business-rule" viewBox="0 0 20 20" overflow="visible">
      <rect
         style="fill:none;stroke:inherit;stroke-width:0.8;stroke-linecap:round;stroke-linejoin:round"
         width="16"
         height="16"
         x="2"
         y="2" />
      <rect
         style="fill:#cccccc;stroke:inherit;stroke-width:0.8;stroke-linecap:round;stroke-linejoin:round"
         width="16"
         height="4"
         x="2"
         y="2" />
      <path
         style="fill:none;stroke:inherit;stroke-width:0.8;stroke-linecap:round;stroke-linejoin:round"
         d="M 2,10.000001 H 18" />
      <path
         style="fill:none;stroke:inherit;stroke-width:0.8;stroke-linecap:round;stroke-linejoin:round"
         d="M 2,14.000004 H 18" />
      <path
         style="fill:none;stroke:inherit;stroke-width:0.8;stroke-linecap:round;stroke-linejoin:round"
         d="M 6,6 V 18" />
  </symbol>

  <symbol id="task-send" viewBox="0 0 20 20" overflow="visible">
      <use href="#envelope-filled" x="0" y="0" width="20" height="20"/>
  </symbol>

  <symbol id="task-receive" viewBox="0 0 20 20" overflow="visible">
      <use href="#envelope-outline" x="0" y="0" width="20" height="20"/>
  </symbol>

  <!-- Event markers. All are authored in a 20x20 viewport. -->
  <symbol id="event-blank-catching" viewBox="0 0 20 20" overflow="visible">
    <!-- its blank, so there is nothing in here -->
  </symbol>


  <symbol id="event-message-catching" viewBox="0 0 20 20" overflow="visible">
    <use href="#envelope-outline" x="0" y="0" width="20" height="20"/>
  </symbol>

  <symbol id="event-message-throwing" viewBox="0 0 20 20" overflow="visible">
    <use href="#envelope-filled" x="0" y="0" width="20" height="20"/>
  </symbol>

  <symbol id="event-timer-catching" viewBox="0 0 36 36" overflow="visible">
  <circle
     fill="none"
     stroke="inherit"
     style="stroke-width:1;stroke-linecap:round;stroke-linejoin:round;stroke-dasharray:none"
     cx="18"
     cy="18"
     r="11" />
  <g transform="translate(18,18)">
    <path
    fill="none"
    stroke="inherit"
       style="stroke-width:1.4;stroke-linecap:round;stroke-linejoin:round;stroke-dasharray:none"
       d="M 0,-10.691356 V -8.69135" />
    <path
    fill="none"
    stroke="inherit"
       style="stroke-width:1.4;stroke-linecap:round;stroke-linejoin:round;stroke-dasharray:none"
       d="M 0,8.6913502 V 10.691356" />
  </g>
  <g transform="rotate(90,0,18)">
    <path
    fill="none"
    stroke="inherit"
       style="stroke-width:1.4;stroke-linecap:round;stroke-linejoin:round;stroke-dasharray:none"
       d="M 0,-10.691356 V -8.69135" />
    <path
    fill="none"
    stroke="inherit"
       style="stroke-width:1.4;stroke-linecap:round;stroke-linejoin:round;stroke-dasharray:none"
       d="M 0,8.6913502 V 10.691356" />
  </g>
  <g transform="rotate(-2.66915,395.31681,-377.31681)">
    <g transform="rotate(-57.33085)">
      <path
      fill="none"
      stroke="inherit"
         style="stroke-width:1.4;stroke-linecap:round;stroke-linejoin:round;stroke-dasharray:none"
         d="M 0,-10.691356 V -8.69135" />
      <path
      fill="none"
      stroke="inherit"
         style="stroke-width:1.4;stroke-linecap:round;stroke-linejoin:round;stroke-dasharray:none"
         d="M 0,8.6913502 V 10.691356" />
    </g>
    <g transform="rotate(32.66915)">
      <path
      fill="none"
      stroke="inherit"
         style="stroke-width:1.4;stroke-linecap:round;stroke-linejoin:round;stroke-dasharray:none"
         d="M 0,-10.691356 V -8.69135" />
      <path
      fill="none"
      stroke="inherit"
         style="stroke-width:1.4;stroke-linecap:round;stroke-linejoin:round;stroke-dasharray:none"
         d="M 0,8.6913502 V 10.691356" />
    </g>
  </g>
  <g transform="rotate(-2.117003,496.10687,-478.10687)">
    <g transform="rotate(-27.882997)">
      <path
      fill="none"
      stroke="inherit"
         style="stroke-width:1.4;stroke-linecap:round;stroke-linejoin:round;stroke-dasharray:none"
         d="M 0,-10.691356 V -8.69135" />
      <path
      fill="none"
      stroke="inherit"
         style="stroke-width:1.4;stroke-linecap:round;stroke-linejoin:round;stroke-dasharray:none"
         d="M 0,8.6913502 V 10.691356" />
    </g>
    <g
       transform="rotate(62.117003)">
      <path
      fill="none"
      stroke="inherit"
         style="stroke-width:1.4;stroke-linecap:round;stroke-linejoin:round;stroke-dasharray:none"
         d="M 0,-10.691356 V -8.69135" />
      <path
      fill="none"
      stroke="inherit"
         style="stroke-width:1.4;stroke-linecap:round;stroke-linejoin:round;stroke-dasharray:none"
         d="M 0,8.6913502 V 10.691356" />
    </g>
  </g>
  <path
     fill="none" stroke="inherit" stroke-width="1.7"
     style="stroke-linecap:round;stroke-linejoin:round;stroke-dasharray:none"
     d="M 24,20 18,18 20.469175,9" />
  </symbol>

  <symbol id="event-error-catching" viewBox="0 0 36 36" overflow="visible">
  <path
     fill="none" stroke="inherit" stroke-width="1.7"
     style="stroke-linecap:round;stroke-linejoin:round"
     d="M 10,24 15.785421,9 20.214579,18 26,12 20.214579,27 15.785421,18 Z" />
  </symbol>

  <symbol id="event-error-throwing" viewBox="0 0 36 36" overflow="visible">
  <path
     fill="inherit" stroke="inherit" stroke-width="1.7"
     style="stroke-linecap:round;stroke-linejoin:round"
     d="M 10,24 15.785421,9 20.214579,18 26,12 20.214579,27 15.785421,18 Z" />
  </symbol>

  <symbol id="event-escalation-catching" viewBox="0 0 36 36" overflow="visible">
  <path
     fill="none" stroke="inherit" stroke-width="1.7"
     style="stroke-linecap:round;stroke-linejoin:round"
     d="m 18,8 -7,19 7,-7 7,7 z" />
  </symbol>

  <symbol id="event-escalation-throwing" viewBox="0 0 36 36" overflow="visible">
  <path
     fill="inherit" stroke="inherit" stroke-width="1.7"
     style="stroke-linecap:round;stroke-linejoin:round"
     d="m 18,8 -7,19 7,-7 7,7 z" />
  </symbol>

  <symbol id="event-cancel-catching" viewBox="0 0 36 36" overflow="visible">
  <path
     fill="none" stroke="inherit" stroke-width="1.7"
     style="stroke-linecap:round;stroke-linejoin:round"
     d="m 24,9 3,3 -6,6 6,6 -3,3 -6,-6 -6,6 -3,-3 6,-6 -6,-6 3,-3 6,6 z"
     />
  </symbol>

  <symbol id="event-cancel-throwing" viewBox="0 0 36 36" overflow="visible">
  <path
     fill="inherit" stroke="inherit" stroke-width="1.7"
     style="stroke-linecap:round;stroke-linejoin:round"
     d="m 24,9 3,3 -6,6 6,6 -3,3 -6,-6 -6,6 -3,-3 6,-6 -6,-6 3,-3 6,6 z"
     />
  </symbol>

  <symbol id="event-compensation-catching" viewBox="0 0 36 36" overflow="visible">
  <path
     fill="none" stroke="inherit" stroke-width="1.7"
     style="stroke-linecap:round;stroke-linejoin:round"
     d="m 25.463694,10 v 16 l -9,-8 z" />
  <path
     fill="none" stroke="inherit" stroke-width="1.7"
     style="stroke-linecap:round;stroke-linejoin:round"
     d="M 16.463694,10 V 26 L 7.463687,18 Z" />
  </symbol>

  <symbol id="event-compensation-throwing" viewBox="0 0 36 36" overflow="visible">
  <path
     fill="inherit" stroke="inherit" stroke-width="1.7"
     style="stroke-linecap:round;stroke-linejoin:round"
     d="m 25.463694,10 v 16 l -9,-8 z" />
  <path
     fill="inherit" stroke="inherit" stroke-width="1.7"
     style="stroke-linecap:round;stroke-linejoin:round"
     d="M 16.463694,10 V 26 L 7.463687,18 Z" />
  </symbol>

  <symbol id="event-conditional-catching" viewBox="0 0 36 36" overflow="visible">
  <path
     fill="none" stroke="inherit" stroke-width="1.7"
     style="stroke-linecap:round;stroke-linejoin:round"
     d="M 11,10 H 25 V 26 H 11 Z" />
  <path
     fill="none" stroke="inherit" stroke-width="1.7"
     style="stroke-linecap:round;stroke-linejoin:round"
     d="m 14,14 h 8" />
  <path
     fill="none" stroke="inherit" stroke-width="1.7"
     style="stroke-linecap:round;stroke-linejoin:round"
     d="m 14,18 h 8" />
  <path
     fill="none" stroke="inherit" stroke-width="1.7"
     style="stroke-linecap:round;stroke-linejoin:round"
     d="m 14,22 h 8" />
  </symbol>

  <symbol id="event-link-catching" viewBox="0 0 36 36" overflow="visible">
  <path
     fill="none" stroke="inherit" stroke-width="1.7"
     style="stroke-linecap:round;stroke-linejoin:round"
     d="m 22,9 6,9 -6,9 V 23 H 9 V 13 h 13 z" />
  </symbol>

  <symbol id="event-link-throwing" viewBox="0 0 36 36" overflow="visible">
  <path
     fill="inherit" stroke="inherit" stroke-width="1.7"
     style="stroke-linecap:round;stroke-linejoin:round"
     d="m 22,9 6,9 -6,9 V 23 H 9 V 13 h 13 z" />
  </symbol>

  <symbol id="event-signal-catching" viewBox="0 0 36 36" overflow="visible">
  <path
     fill="none" stroke="inherit" stroke-width="1.7"
     style="stroke-linecap:round;stroke-linejoin:round"
     d="m 18,8 9,15 H 9 Z" />
  </symbol>

  <symbol id="event-signal-throwing" viewBox="0 0 36 36" overflow="visible">
  <path
     fill="inherit" stroke="inherit" stroke-width="1.7"
     style="stroke-linecap:round;stroke-linejoin:round"
     d="m 18,8 9,15 H 9 Z" />
  </symbol>

  <symbol id="event-termination-throwing" viewBox="0 0 36 36" overflow="visible">
  <circle
     fill="inherit" stroke="inherit" stroke-width="1.7"
     style="stroke-linecap:round;stroke-linejoin:round"
     cx="18"
     cy="18"
     r="11" />
  </symbol>

  <symbol id="event-multiple-catching" viewBox="0 0 36 36" overflow="visible">
  <path
     fill="none" stroke="inherit" stroke-width="1.7"
     style="stroke-linecap:round;stroke-linejoin:round"
     d="m 18,8 9,7 -3,11 H 12 L 9,15 Z" />
  </symbol>

  <symbol id="event-multiple-throwing" viewBox="0 0 36 36" overflow="visible">
  <path
     fill="inherit" stroke="inherit" stroke-width="1.7"
     style="stroke-linecap:round;stroke-linejoin:round"
     d="m 18,8 9,7 -3,11 H 12 L 9,15 Z" />
  </symbol>

  <symbol id="event-multiple-parallel-catching" viewBox="0 0 36 36" overflow="visible">
  <path
     fill="none" stroke="inherit" stroke-width="1.7"
     style="stroke-linecap:round;stroke-linejoin:round"
     d="m 15.5,8 h 5 v 7.5 H 28 v 5 H 20.5 V 28 h -5 V 20.5 H 8 v -5 h 7.5 z" />
  </symbol>

  <symbol id="event-multiple-parallel-throwing" viewBox="0 0 36 36" overflow="visible">
  <path
     fill="inherit" stroke="inherit" stroke-width="1.7"
     style="stroke-linecap:round;stroke-linejoin:round"
     d="m 15.5,8 h 5 v 7.5 H 28 v 5 H 20.5 V 28 h -5 V 20.5 H 8 v -5 h 7.5 z" />
  </symbol>

  <symbol id="event-solid" viewBox="0 0 36 36" overflow="visible">
  <circle
     style="fill:inherit;stroke:inherit;stroke-width:2;stroke-linecap:round;stroke-linejoin:round"
     cx="18" cy="18" r="18" />
  </symbol>

  <symbol id="event-solid-solid" viewBox="0 0 36 36" overflow="visible">
  <circle
     style="fill:inherit;stroke:inherit;stroke-width:2;stroke-linecap:round;stroke-linejoin:round"
     cx="18" cy="18" r="18" />
  <circle
     style="fill:none;stroke:inherit;stroke-width:2;stroke-linecap:round;stroke-linejoin:round"
     cx="18" cy="18" r="14.3" />
  </symbol>

  <symbol id="event-dashed" viewBox="0 0 36 36" overflow="visible">
  <circle
     style="fill:inherit;stroke:inherit;stroke-width:0.8;stroke-linecap:round;stroke-linejoin:round;stroke-dasharray:2.40000006,2.40000006;stroke-dashoffset:0"
     cx="10"
     cy="10"
     r="10" />
  </symbol>

  <symbol id="event-dashed-dashed" viewBox="0 0 36 36" overflow="visible">
  <circle
     style="fill:inherit;stroke:inherit;stroke-width:2;stroke-linecap:round;stroke-linejoin:round;stroke-dasharray:6.8,5.8;stroke-dashoffset:0"
     cx="18"
     cy="18"
     r="18" />
  <circle
     style="fill:inherit;stroke:inherit;stroke-width:2;stroke-linecap:round;stroke-linejoin:round;stroke-dasharray:5.2,4.8;stroke-dashoffset:0"
     cx="18"
     cy="18"
     r="14.3" />
  </symbol>

  <symbol id="event-thick" viewBox="0 0 36 36" overflow="visible">
  <circle
     style="fill:inherit;stroke:inherit;stroke-width:4.6;stroke-linecap:round;stroke-linejoin:round"
     cx="18" cy="18" r="16.7" />
  </symbol>

  <symbol id="task-box" viewBox="0 0 100 80" overflow="visible" >
  <rect
     width="100"
     height="80"
     x="0"
     y="0"
     ry="5"
     stroke-width="2"
     />
  </symbol>

  <symbol id="gateway-box" viewBox="0 0 50 50" overflow="visible" >
  <path d="M25 0 L50 25 L25 50 L0 25 z" stroke-width="2" />
  </symbol>

  <!-- Gateway markers. -->

  <symbol id="gateway-exclusive" viewBox="0 0 50 50" overflow="visible">
  <g clip-path="url(#gateway-x-clippath)">
    <path fill="none" stroke="inherit" stroke-width="4" d="M 10,47 40,3" />
    <path fill="none" stroke="inherit" stroke-width="4" d="M 10,3 40,47" />
  </g>
  </symbol>

  <symbol id="gateway-inclusive" viewBox="0 0 50 50" overflow="visible">
  <circle fill="none" stroke="inherit" stroke-width="4"
     cx="25" cy="25" r="12" />
  </symbol>

  <symbol id="gateway-parallel" viewBox="0 0 50 50" overflow="visible">
    <path fill="none" stroke="inherit" stroke-width="4.5" stroke-linecap="butt" d="M 25,10 V 40" />
    <path fill="none" stroke="inherit" stroke-width="4.5" stroke-linecap="butt" d="M 10,25 H 40" />
  </symbol>

  <symbol id="gateway-complex" viewBox="0 0 50 50" overflow="visible">
  <path
     style="fill:none;stroke:inherit;stroke-width:0.8;stroke-linecap:round;stroke-linejoin:round;stroke-dasharray:none"
     d="M 25,0 0,25 25,50 50,25 Z" />
  <path
     style="fill:inherit;stroke:inherit;stroke-width:0.8;stroke-linecap:round;stroke-linejoin:round;stroke-dasharray:none"
     d="m 23,10 h 4 v 13 h 13 v 4 H 27 V 40 H 23 V 27 H 10 v -4 h 13 z" />
  <path
     style="fill:inherit;stroke:inherit;stroke-width:0.8;stroke-linecap:round;stroke-linejoin:round;stroke-dasharray:none"
     d="M 34.192388,12.979185 37.020815,15.807612 27.828427,25 37.020815,34.192388 34.192388,37.020815 25,27.828427 15.807612,37.020815 12.979185,34.192388 22.171573,25 12.979185,15.807612 15.807612,12.979185 25,22.171573 Z" />
  </symbol>

  <symbol id="gateway-event" viewBox="0 0 50 50" overflow="visible">
  <path
     style="fill:none;stroke:inherit;stroke-width:0.8;stroke-linecap:round;stroke-linejoin:round;stroke-dasharray:none"
     d="M 25,0 0,25 25,50 50,25 Z" />
  <circle
     style="fill:none;stroke:inherit;stroke-width:0.8;stroke-linecap:round;stroke-linejoin:round;stroke-dasharray:none"
     cx="25"
     cy="25"
     r="15" />
  <path
     style="fill:none;stroke:inherit;stroke-width:0.8;stroke-linecap:round;stroke-linejoin:round;stroke-dasharray:none"
     d="m 25,14 -10,9 5,11 h 10 l 5,-11 z" />
  </symbol>

  <symbol id="gateway-parallel-event" viewBox="0 0 50 50" overflow="visible">
  <path
     style="fill:none;stroke:inherit;stroke-width:0.8;stroke-linecap:round;stroke-linejoin:round;stroke-dasharray:none"
     d="M 25,0 0,25 25,50 50,25 Z" />
  <circle
     style="fill:none;stroke:inherit;stroke-width:0.8;stroke-linecap:round;stroke-linejoin:round;stroke-dasharray:none"
     cx="25"
     cy="25"
     r="15" />
  <path
     style="fill:none;stroke:inherit;stroke-width:0.8;stroke-linecap:round;stroke-linejoin:round;stroke-dasharray:none"
     d="m 23,15 h 4 v 8 h 8 v 4 h -8 v 8 h -4 v -8 h -8 v -4 h 8 z" />
  </symbol>

  <symbol id="tm-multiple" overflow="visible" viewBox="0 0 20 20">
  <path fill="none" stroke="inherit" d="M 3,0 V 20" />
  <path fill="none" stroke="inherit" d="M 17,0 V 20" />
  <path fill="none" stroke="inherit" d="M 10,0 V 20" />
  </symbol>

  <symbol id="tm-loop" overflow="visible" viewBox="0 0 20 20">
  <path fill="none" stroke="inherit" d="m 11.093792,-14.750938 a 9.1923876,9.1923876 0 0 1 -6.7910132,8.8731834 9.1923876,9.1923876 0 0 1 -10.3391154,-4.2372094 9.1923876,9.1923876 0 0 1 1.389134,-11.087 9.1923876,9.1923876 0 0 1 11.0648964,-1.555417" transform="rotate(126.12164)" />
  <path fill="none" stroke="inherit" d="M 0.20754269,18.223762 6.572799,18.91911 5.8539361,12.556466" />
  </symbol>

  <symbol id="tm-compensation" overflow="visible" viewBox="0 0 20 20">
  <path fill="none" stroke="inherit" d="M 10,2 V 18 L 2,10 Z" />
  <path fill="none" stroke="inherit" d="m 18.7,2 v 16 l -8,-8 z" />
  </symbol>

  <symbol id="tm-adhoc" overflow="visible" viewBox="0 0 20 20">
  <path fill="inherit" stroke="none" d="m 18,9.8639019 c -2,1.5082241 -6,2.4844491 -8.0000002,0.9999991 -2.0000002,-1.4844491 -5.9999998,-1.5082241 -8,0 L 2,6.8639019 c 2,-1.438125 6,-1.447185 8,0 2,1.447185 6,0.52575 8,-1 z" />
  </symbol>

  <symbol id="tm-plus-box" overflow="visible" viewBox="0 0 20 20">
  <rect
     stroke-width="1.7"
     fill="none"
     width="20"
     height="20"
     x="0"
     y="0" />
  <path d="M 10,4 V 16" />
  <path d="M 4,10 H 16" />
  </symbol>

  <!-- Data shapes authored in a 60x70 viewport. -->
  <symbol id="data-object" viewBox="0 0 36 50" overflow="visible">
  <path
     style="fill:none;stroke:inherit;stroke-linecap:round;stroke-linejoin:round;stroke-dasharray:none"
     d="M 0,0 V 50 H 36 V 12 L 23,0 Z" />
  <path
     style="fill:none;stroke:inherit;stroke-linecap:round;stroke-linejoin:round;stroke-dasharray:none"
     d="M 23,0 V 12 H 36" />
  </symbol>

  <symbol id="data-input" viewBox="0 0 36 50" overflow="visible">
  <path
     style="fill:none;stroke:inherit;stroke-linecap:round;stroke-linejoin:round;stroke-dasharray:none"
     d="M 0,0 V 50 H 36 V 12 L 23,0 Z" />
  <path
     style="fill:none;stroke:inherit;stroke-linecap:round;stroke-linejoin:round;stroke-dasharray:none"
     d="M 23,0 V 12 H 36" />
  <path
     style="fill:none;stroke:inherit;stroke-linecap:round;stroke-linejoin:round;stroke-dasharray:none"
     d="m 3,8 h 9 V 3 l 7,8 -7,8 V 14 H 3 Z" />
  </symbol>

  <symbol id="data-output" viewBox="0 0 36 50" overflow="visible">
  <path
     style="fill:none;stroke:inherit;stroke-linecap:round;stroke-linejoin:round;stroke-dasharray:none"
     d="M 0,0 V 50 H 36 V 12 L 23,0 Z" />
  <path
     style="fill:none;stroke:inherit;stroke-linecap:round;stroke-linejoin:round;stroke-dasharray:none"
     d="M 23,0 V 12 H 36" />
  <path
     style="fill:inherit;stroke:inherit;stroke-linecap:round;stroke-linejoin:round;stroke-dasharray:none"
     d="m 3,8 h 9 V 3 l 7,8 -7,8 V 14 H 3 Z" />
  </symbol>

  <symbol id="data-store" viewBox="0 0 50 50" overflow="visible">
  <path
     style="fill:none;stroke-linecap:round;stroke-linejoin:round;stroke-dasharray:none"
     d="m 0,5 v 40 c 0,2.761424 11.192881,5 25,5 13.807119,0 25,-2.238576 25,-5 V 5" />
  <ellipse
     style="fill:none;stroke:inherit;stroke-linecap:square;stroke-linejoin:miter;stroke-dasharray:none"
     cx="25"
     cy="5"
     rx="25"
     ry="5" />
  <path
     style="fill:none;stroke:inherit;stroke-linecap:square"
     d="M 50,8.8 C 50,11.5614237 38.807119,13.8 25,13.8 11.192881,13.8 0,11.5614237 0,8.8" />
  <path
     style="fill:none;stroke:inherit;stroke-linecap:square"
     d="M 50,12.6 C 50,15.361424 38.807119,17.6 25,17.6 11.192881,17.6 0,15.361424 0,12.6" />
  </symbol>
</defs>
<rect x="0" y="0" width="564" height="391" fill="white" stroke="white" stroke-width="2" />
<g transform="translate(0,0)">
  <rect x="0" y="0" width="564" fill="#fff" height="391" stroke="none" stroke-width="2"/>
  <rect x="0" y="0" width="564" fill="none" height="391" stroke="#222" stroke-width="2"/>
  <line x1="32" y1="0" x2="32" y2="391" stroke="#222" stroke-width="2"/>
  <rect class="lane-border" x="32" y="0" width="532" fill="none" height="265" stroke="#222" stroke-width="2"/>
  <rect class="lane-border" x="32" y="265" width="532" fill="none" height="126" stroke="#222" stroke-width="2"/>

            <path transform="translate(9, 390.5) rotate(-90)" d="M 181.5075 2.6560001 Q 183.17938 2.6560001 183.945 3.2810001 Q 184.71063 3.9060001 184.71063 5.046625 Q 184.71063 5.7185 184.39813 6.296625 Q 184.08563 6.87475 183.33563 7.24975 Q 182.58563 7.609125 181.30438 7.609125 L 180.32 7.609125 L 180.32 11.656 L 179.22626 11.656 L 179.22626 2.6560001 Z M 181.41376 3.5778751 L 180.32 3.5778751 L 180.32 6.68725 L 181.17938 6.68725 Q 182.39813 6.68725 182.99188 6.327875 Q 183.60126 5.952875 183.60126 5.0935 Q 183.60126 4.327875 183.07 3.9528751 Q 182.53876 3.5778751 181.41376 3.5778751 Z M 191.93938 8.140375 Q 191.93938 9.81225 191.12688 10.734125 Q 190.31438 11.656 188.93938 11.656 Q 188.09563 11.656 187.42375 11.24975 Q 186.75188 10.8435 186.36125 10.06225 Q 185.98625 9.265375 185.98625 8.140375 Q 185.98625 6.4685 186.78313 5.56225 Q 187.59563 4.656 188.97063 4.656 Q 189.86125 4.656 190.5175 5.06225 Q 191.18938 5.4685 191.56438 6.24975 Q 191.93938 7.015375 191.93938 8.140375 Z M 187.08 8.140375 Q 187.08 9.327875 187.53313 10.031 Q 187.98625 10.734125 188.97063 10.734125 Q 189.93938 10.734125 190.3925 10.031 Q 190.84563 9.327875 190.84563 8.140375 Q 190.84563 6.93725 190.3925 6.265375 Q 189.93938 5.577875 188.955 5.577875 Q 187.97063 5.577875 187.5175 6.265375 Q 187.08 6.93725 187.08 8.140375 Z M 199.19937 8.140375 Q 199.19937 9.81225 198.38687 10.734125 Q 197.57437 11.656 196.19937 11.656 Q 195.35562 11.656 194.68375 11.24975 Q 194.01187 10.8435 193.62125 10.06225 Q 193.24625 9.265375 193.24625 8.140375 Q 193.24625 6.4685 194.04312 5.56225 Q 194.85562 4.656 196.23062 4.656 Q 197.12125 4.656 197.7775 5.06225 Q 198.44937 5.4685 198.82437 6.24975 Q 199.19937 7.015375 199.19937 8.140375 Z M 194.34 8.140375 Q 194.34 9.327875 194.79312 10.031 Q 195.24625 10.734125 196.23062 10.734125 Q 197.19937 10.734125 197.6525 10.031 Q 198.10562 9.327875 198.10562 8.140375 Q 198.10562 6.93725 197.6525 6.265375 Q 197.19937 5.577875 196.215 5.577875 Q 195.23062 5.577875 194.7775 6.265375 Q 194.34 6.93725 194.34 8.140375 Z M 201.92812 11.656 L 200.86562 11.656 L 200.86562 1.6560001 L 201.92812 1.6560001 Z M 210.3316 11.656 L 209.30035 11.656 L 209.30035 5.3435 Q 209.30035 4.81225 209.30035 4.484125 Q 209.31598 4.156 209.34723 3.7966251 Q 209.1441 3.9997501 208.98785 4.140375 Q 208.8316 4.281 208.59723 4.49975 L 207.69098 5.281 L 207.12848 4.546625 L 209.4566 2.6560001 L 210.3316 2.6560001 Z " fill="#111" stroke="none" />
            
<text class="pool-title" transform="translate(2, 195) rotate(-90)" text-anchor="middle" dominant-baseline="middle" font-family="sans-serif" fill="#111" font-size="12" fill-opacity="0"><tspan x="0" dy="14">Pool 1</tspan></text>

            <path transform="translate(41, 264.5) rotate(-90)" d="M 115.06225 11.656 L 115.06225 2.6560001 L 116.156 2.6560001 L 116.156 10.640375 L 119.89037 10.640375 L 119.89037 11.656 Z M 123.647125 4.656 Q 124.819 4.656 125.3815 5.2185 Q 125.959625 5.765375 125.959625 6.9685 L 125.959625 11.656 L 125.178375 11.656 L 124.97525 10.577875 L 124.928375 10.577875 Q 124.5065 11.12475 124.03775 11.390375 Q 123.584625 11.656 122.772125 11.656 Q 121.897125 11.656 121.319 11.18725 Q 120.740875 10.7185 120.740875 9.7185 Q 120.740875 8.74975 121.490875 8.2185 Q 122.2565 7.68725 123.834625 7.68725 L 124.928375 7.68725 L 124.928375 7.234125 Q 124.928375 6.296625 124.569 5.93725 Q 124.22525 5.577875 123.584625 5.577875 Q 123.084625 5.577875 122.6315 5.74975 Q 122.178375 5.921625 121.772125 6.140375 L 121.459625 5.265375 Q 121.8815 5.015375 122.444 4.8435 Q 123.022125 4.656 123.647125 4.656 Z M 123.959625 8.609125 Q 122.7565 8.609125 122.28775 8.921625 Q 121.834625 9.2185 121.834625 9.781 Q 121.834625 10.281 122.16275 10.515375 Q 122.490875 10.734125 123.0065 10.734125 Q 123.834625 10.734125 124.365875 10.3435 Q 124.91275 9.93725 124.91275 9.109125 L 124.91275 8.609125 Z M 131.03537 4.656 Q 132.19162 4.656 132.76974 5.24975 Q 133.3635 5.8435 133.3635 7.18725 L 133.3635 11.656 L 132.33224 11.656 L 132.33224 7.234125 Q 132.33224 5.577875 130.87912 5.577875 Q 129.81662 5.577875 129.41037 6.2185 Q 129.00412 6.859125 129.00412 8.077875 L 129.00412 11.656 L 127.94163 11.656 L 127.94163 4.656 L 128.801 4.656 L 128.95724 5.7185 L 129.01974 5.7185 Q 129.33224 5.18725 129.87912 4.921625 Q 130.426 4.656 131.03537 4.656 Z M 137.842 4.656 Q 138.67012 4.656 139.26387 5.06225 Q 139.85762 5.452875 140.17012 6.18725 Q 140.49825 6.921625 140.49825 7.906 L 140.49825 8.609125 L 136.092 8.609125 Q 136.12325 9.656 136.6545 10.202875 Q 137.18575 10.734125 138.13887 10.734125 Q 138.76387 10.734125 139.23262 10.640375 Q 139.70137 10.531 140.217 10.327875 L 140.217 11.24975 Q 139.717 11.452875 139.23262 11.56225 Q 138.76387 11.656 138.092 11.656 Q 137.18575 11.656 136.48262 11.265375 Q 135.7795 10.87475 135.38887 10.109125 Q 134.99825 9.327875 134.99825 8.202875 Q 134.99825 7.0935 135.35762 6.31225 Q 135.717 5.515375 136.35762 5.0935 Q 136.99825 4.656 137.842 4.656 Z M 137.82637 5.577875 Q 137.07637 5.577875 136.63887 6.140375 Q 136.20137 6.68725 136.12325 7.68725 L 139.38887 7.68725 Q 139.38887 6.74975 139.01387 6.171625 Q 138.63887 5.577875 137.82637 5.577875 Z M 148.49562 11.656 L 147.46437 11.656 L 147.46437 5.3435 Q 147.46437 4.81225 147.46437 4.484125 Q 147.48 4.156 147.51125 3.7966251 Q 147.30812 3.9997501 147.15187 4.140375 Q 146.99562 4.281 146.76125 4.49975 L 145.855 5.281 L 145.2925 4.546625 L 147.62062 2.6560001 L 148.49562 2.6560001 Z " fill="#111" stroke="none" />
            
<text class="lane-title" transform="translate(34, 132) rotate(-90)" text-anchor="middle" dominant-baseline="middle" font-family="sans-serif" fill="#111" font-size="12" fill-opacity="0"><tspan x="0" dy="14">Lane 1</tspan></text>

            <path transform="translate(41, 391) rotate(-90)" d="M 45.56225 11.656 L 45.56225 2.6560001 L 46.656 2.6560001 L 46.656 10.640375 L 50.390373 10.640375 L 50.390373 11.656 Z M 54.147125 4.656 Q 55.319 4.656 55.8815 5.2185 Q 56.459625 5.765375 56.459625 6.9685 L 56.459625 11.656 L 55.678375 11.656 L 55.47525 10.577875 L 55.428375 10.577875 Q 55.0065 11.12475 54.53775 11.390375 Q 54.084625 11.656 53.272125 11.656 Q 52.397125 11.656 51.819 11.18725 Q 51.240875 10.7185 51.240875 9.7185 Q 51.240875 8.74975 51.990875 8.2185 Q 52.7565 7.68725 54.334625 7.68725 L 55.428375 7.68725 L 55.428375 7.234125 Q 55.428375 6.296625 55.069 5.93725 Q 54.72525 5.577875 54.084625 5.577875 Q 53.584625 5.577875 53.1315 5.74975 Q 52.678375 5.921625 52.272125 6.140375 L 51.959625 5.265375 Q 52.3815 5.015375 52.944 4.8435 Q 53.522125 4.656 54.147125 4.656 Z M 54.459625 8.609125 Q 53.2565 8.609125 52.78775 8.921625 Q 52.334625 9.2185 52.334625 9.781 Q 52.334625 10.281 52.66275 10.515375 Q 52.990875 10.734125 53.5065 10.734125 Q 54.334625 10.734125 54.865875 10.3435 Q 55.41275 9.93725 55.41275 9.109125 L 55.41275 8.609125 Z M 61.535374 4.656 Q 62.691624 4.656 63.26975 5.24975 Q 63.8635 5.8435 63.8635 7.18725 L 63.8635 11.656 L 62.83225 11.656 L 62.83225 7.234125 Q 62.83225 5.577875 61.379124 5.577875 Q 60.316624 5.577875 59.910374 6.2185 Q 59.504124 6.859125 59.504124 8.077875 L 59.504124 11.656 L 58.441624 11.656 L 58.441624 4.656 L 59.301 4.656 L 59.45725 5.7185 L 59.51975 5.7185 Q 59.83225 5.18725 60.379124 4.921625 Q 60.926 4.656 61.535374 4.656 Z M 68.341995 4.656 Q 69.17012 4.656 69.76387 5.06225 Q 70.35762 5.452875 70.67012 6.18725 Q 70.998245 6.921625 70.998245 7.906 L 70.998245 8.609125 L 66.591995 8.609125 Q 66.623245 9.656 67.154495 10.202875 Q 67.685745 10.734125 68.63887 10.734125 Q 69.26387 10.734125 69.73262 10.640375 Q 70.20137 10.531 70.716995 10.327875 L 70.716995 11.24975 Q 70.216995 11.452875 69.73262 11.56225 Q 69.26387 11.656 68.591995 11.656 Q 67.685745 11.656 66.98262 11.265375 Q 66.279495 10.87475 65.88887 10.109125 Q 65.498245 9.327875 65.498245 8.202875 Q 65.498245 7.0935 65.85762 6.31225 Q 66.216995 5.515375 66.85762 5.0935 Q 67.498245 4.656 68.341995 4.656 Z M 68.32637 5.577875 Q 67.57637 5.577875 67.13887 6.140375 Q 66.70137 6.68725 66.623245 7.68725 L 69.88887 7.68725 Q 69.88887 6.74975 69.51387 6.171625 Q 69.13887 5.577875 68.32637 5.577875 Z M 80.96437 11.656 L 75.30812 11.656 L 75.30812 10.8435 L 77.542496 8.452875 Q 78.198746 7.781 78.636246 7.24975 Q 79.08937 6.7185 79.30812 6.2185 Q 79.542496 5.702875 79.542496 5.0935 Q 79.542496 4.3435 79.12062 3.9685001 Q 78.698746 3.5778751 78.02687 3.5778751 Q 77.40187 3.5778751 76.93312 3.8122501 Q 76.46437 4.031 75.96437 4.43725 L 75.40187 3.6716251 Q 75.90187 3.2497501 76.55812 2.9528751 Q 77.21437 2.6560001 78.02687 2.6560001 Q 79.229996 2.6560001 79.917496 3.2966251 Q 80.62062 3.9372501 80.62062 5.046625 Q 80.62062 5.765375 80.33937 6.390375 Q 80.073746 6.99975 79.573746 7.609125 Q 79.08937 8.202875 78.43312 8.87475 L 76.636246 10.734125 L 76.636246 10.734125 L 80.96437 10.734125 Z " fill="#111" stroke="none" />
            
<text class="lane-title" transform="translate(34, 328) rotate(-90)" text-anchor="middle" dominant-baseline="middle" font-family="sans-serif" fill="#111" font-size="12" fill-opacity="0"><tspan x="0" dy="14">Lane 2</tspan></text>
</g>

<g class="event event-solid event-catching event-blank">
  <use href="#event-solid" x="136" y="67" width="36" height="36" stroke="#222" fill="#fff"/>
  <use href="#event-blank-catching" x="136" y="67" width="36" height="36" stroke="#222" fill="none"/>

<path d="M 147.03125 120.17162 Q 147.03125 121.3435 146.20313 121.99975 Q 145.375 122.656 143.96875 122.656 Q 143.25 122.656 142.625 122.56225 Q 142.01563 122.45287 141.60938 122.281 L 141.60938 121.23412 Q 142.04688 121.42162 142.6875 121.57787 Q 143.32813 121.73412 144.01563 121.73412 Q 144.96875 121.73412 145.45313 121.35912 Q 145.9375 120.9685 145.9375 120.31225 Q 145.9375 119.89037 145.75 119.5935 Q 145.57813 119.29662 145.14063 119.04662 Q 144.70313 118.79662 143.92188 118.51537 Q 142.84375 118.10912 142.28125 117.51537 Q 141.71875 116.92162 141.71875 115.89037 Q 141.71875 115.20287 142.0625 114.70287 Q 142.42188 114.20287 143.03125 113.93725 Q 143.65625 113.656 144.45313 113.656 Q 145.15625 113.656 145.75 113.781 Q 146.34375 113.906 146.8125 114.12475 L 146.48438 115.14037 Q 146.04688 114.906 145.51563 114.74975 Q 145 114.57787 144.4375 114.57787 Q 143.625 114.57787 143.21875 114.93725 Q 142.8125 115.281 142.8125 115.85912 Q 142.8125 116.31225 142.98438 116.60912 Q 143.17188 116.89037 143.57813 117.12475 Q 143.98438 117.35912 144.6875 117.64037 Q 145.4375 117.92162 145.95313 118.24975 Q 146.48438 118.57787 146.75 119.031 Q 147.03125 119.48412 147.03125 120.17162 Z M 150.75987 121.73412 Q 150.99425 121.73412 151.24425 121.70287 Q 151.49425 121.656 151.6505 121.60912 L 151.6505 122.4685 Q 151.49425 122.54662 151.18175 122.60912 Q 150.86925 122.656 150.57237 122.656 Q 150.07237 122.656 149.63487 122.4685 Q 149.213 122.281 148.94737 121.82787 Q 148.69737 121.37475 148.69737 120.54662 L 148.69737 116.57787 L 147.7755 116.57787 L 147.7755 115.99975 L 148.69737 115.56225 L 149.11925 114.156 L 149.74425 114.156 L 149.74425 115.656 L 151.60362 115.656 L 151.60362 116.57787 L 149.74425 116.57787 L 149.74425 120.51537 Q 149.74425 121.14037 150.0255 121.43725 Q 150.30675 121.73412 150.75987 121.73412 Z M 155.37312 115.656 Q 156.545 115.656 157.1075 116.2185 Q 157.68562 116.76537 157.68562 117.9685 L 157.68562 122.656 L 156.90437 122.656 L 156.70125 121.57787 L 156.65437 121.57787 Q 156.2325 122.12475 155.76375 122.39037 Q 155.31062 122.656 154.49812 122.656 Q 153.62312 122.656 153.045 122.18725 Q 152.46687 121.7185 152.46687 120.7185 Q 152.46687 119.74975 153.21687 119.2185 Q 153.9825 118.68725 155.56062 118.68725 L 156.65437 118.68725 L 156.65437 118.23412 Q 156.65437 117.29662 156.295 116.93725 Q 155.95125 116.57787 155.31062 116.57787 Q 154.81062 116.57787 154.3575 116.74975 Q 153.90437 116.92162 153.49812 117.14037 L 153.18562 116.26537 Q 153.6075 116.01537 154.17 115.8435 Q 154.74812 115.656 155.37312 115.656 Z M 155.68562 119.60912 Q 154.4825 119.60912 154.01375 119.92162 Q 153.56062 120.2185 153.56062 120.781 Q 153.56062 121.281 153.88875 121.51537 Q 154.21687 121.73412 154.7325 121.73412 Q 155.56062 121.73412 156.09187 121.3435 Q 156.63875 120.93725 156.63875 120.10912 L 156.63875 119.60912 Z M 162.66763 115.656 Q 162.85513 115.656 163.05826 115.67162 Q 163.27701 115.68725 163.43326 115.7185 L 163.29263 116.67162 Q 163.13638 116.62475 162.94888 116.60912 Q 162.76138 116.57787 162.60513 116.57787 Q 162.10513 116.57787 161.66763 116.87475 Q 161.24576 117.17162 160.98013 117.70287 Q 160.73013 118.2185 160.73013 118.92162 L 160.73013 122.656 L 159.66763 122.656 L 159.66763 115.656 L 160.54263 115.656 L 160.65201 116.95287 L 160.69888 116.95287 Q 161.01138 116.42162 161.49576 116.04662 Q 161.99576 115.656 162.66763 115.656 Z M 166.77988 121.73412 Q 167.01425 121.73412 167.26425 121.70287 Q 167.51425 121.656 167.6705 121.60912 L 167.6705 122.4685 Q 167.51425 122.54662 167.20175 122.60912 Q 166.88925 122.656 166.59238 122.656 Q 166.09238 122.656 165.65488 122.4685 Q 165.233 122.281 164.96738 121.82787 Q 164.71738 121.37475 164.71738 120.54662 L 164.71738 116.57787 L 163.7955 116.57787 L 163.7955 115.99975 L 164.71738 115.56225 L 165.13925 114.156 L 165.76425 114.156 L 165.76425 115.656 L 167.62363 115.656 L 167.62363 116.57787 L 165.76425 116.57787 L 165.76425 120.51537 Q 165.76425 121.14037 166.0455 121.43725 Q 166.32675 121.73412 166.77988 121.73412 Z " fill="#111" stroke="none" />
<text class="" x="141" y="97" text-anchor="start" dominant-baseline="hanging" font-family="sans-serif" fill="#111" font-size="12" fill-opacity="0"><tspan x="141" dy="14">Start</tspan></text>
</g>
<g class="gateway gateway-exclusive">

<use href="#gateway-box" x="289" y="60" stroke="#222" fill="#fff" width="50" height="50" stroke-width="2" />
<use href="#gateway-exclusive" x="289" y="60" stroke="#222" fill="#222" width="50" height="50" stroke-width="2" />

<path d="M 252.89063 59.68725 L 255.84375 59.68725 L 255.84375 64.23412 Q 255.15625 64.45287 254.4375 64.56225 Q 253.73438 64.656 252.84375 64.656 Q 251.5 64.656 250.59375 64.10912 Q 249.6875 63.56225 249.20313 62.56225 Q 248.73438 61.546623 248.73438 60.156 Q 248.73438 58.781 249.25 57.781 Q 249.78125 56.765373 250.76563 56.2185 Q 251.76563 55.656 253.17188 55.656 Q 253.89063 55.656 254.53125 55.781 Q 255.17188 55.906 255.73438 56.140373 L 255.3125 57.046623 Q 254.85938 56.859123 254.28125 56.7185 Q 253.71875 56.577873 253.10938 56.577873 Q 251.57813 56.577873 250.71875 57.531 Q 249.85938 58.484123 249.85938 60.156 Q 249.85938 61.202873 250.1875 62.015373 Q 250.51563 62.827873 251.21875 63.281 Q 251.9375 63.734123 253.09375 63.734123 Q 253.65625 63.734123 254.04688 63.671623 Q 254.4375 63.5935 254.76563 63.49975 L 254.76563 60.609123 L 252.89063 60.609123 Z M 260.18912 57.656 Q 261.361 57.656 261.9235 58.2185 Q 262.50162 58.765373 262.50162 59.9685 L 262.50162 64.656 L 261.72037 64.656 L 261.51724 63.577873 L 261.47037 63.577873 Q 261.0485 64.12475 260.57974 64.39037 Q 260.12662 64.656 259.31412 64.656 Q 258.43912 64.656 257.861 64.18725 Q 257.28287 63.7185 257.28287 62.7185 Q 257.28287 61.74975 258.03287 61.2185 Q 258.7985 60.68725 260.37662 60.68725 L 261.47037 60.68725 L 261.47037 60.234123 Q 261.47037 59.296623 261.111 58.93725 Q 260.76724 58.577873 260.12662 58.577873 Q 259.62662 58.577873 259.1735 58.74975 Q 258.72037 58.921623 258.31412 59.140373 L 258.00162 58.265373 Q 258.4235 58.015373 258.986 57.8435 Q 259.56412 57.656 260.18912 57.656 Z M 260.50162 61.609123 Q 259.2985 61.609123 258.82974 61.921623 Q 258.37662 62.2185 258.37662 62.781 Q 258.37662 63.281 258.70474 63.515373 Q 259.03287 63.734123 259.5485 63.734123 Q 260.37662 63.734123 260.90787 63.3435 Q 261.45474 62.93725 261.45474 62.109123 L 261.45474 61.609123 Z M 266.63986 63.734123 Q 266.87424 63.734123 267.12424 63.702873 Q 267.37424 63.656 267.5305 63.609123 L 267.5305 64.4685 Q 267.37424 64.54662 267.06174 64.60912 Q 266.74924 64.656 266.45236 64.656 Q 265.95236 64.656 265.51486 64.4685 Q 265.093 64.281 264.82736 63.827873 Q 264.57736 63.37475 264.57736 62.546623 L 264.57736 58.577873 L 263.6555 58.577873 L 263.6555 57.99975 L 264.57736 57.56225 L 264.99924 56.156 L 265.62424 56.156 L 265.62424 57.656 L 267.4836 57.656 L 267.4836 58.577873 L 265.62424 58.577873 L 265.62424 62.515373 Q 265.62424 63.140373 265.9055 63.43725 Q 266.18674 63.734123 266.63986 63.734123 Z M 271.3 57.656 Q 272.1281 57.656 272.72186 58.06225 Q 273.3156 58.452873 273.6281 59.18725 Q 273.95624 59.921623 273.95624 60.906 L 273.95624 61.609123 L 269.55 61.609123 Q 269.58124 62.656 270.1125 63.202873 Q 270.64374 63.734123 271.59686 63.734123 Q 272.22186 63.734123 272.6906 63.640373 Q 273.15936 63.531 273.675 63.327873 L 273.675 64.24975 Q 273.175 64.45287 272.6906 64.56225 Q 272.22186 64.656 271.55 64.656 Q 270.64374 64.656 269.9406 64.26537 Q 269.2375 63.87475 268.84686 63.109123 Q 268.45624 62.327873 268.45624 61.202873 Q 268.45624 60.0935 268.8156 59.31225 Q 269.175 58.515373 269.8156 58.0935 Q 270.45624 57.656 271.3 57.656 Z M 271.28436 58.577873 Q 270.53436 58.577873 270.09686 59.140373 Q 269.65936 59.68725 269.58124 60.68725 L 272.84686 60.68725 Q 272.84686 59.74975 272.47186 59.171623 Q 272.09686 58.577873 271.28436 58.577873 Z M 279.49988 60.7185 Q 279.34363 60.18725 279.21863 59.671623 Q 279.10925 59.156 279.06238 58.87475 L 279.0155 58.87475 Q 278.953 59.156 278.84363 59.671623 Q 278.74988 60.18725 278.578 60.734123 L 277.42175 64.656 L 276.21863 64.656 L 274.453 57.656 L 275.54675 57.656 L 276.43738 61.406 Q 276.578 61.9685 276.68738 62.546623 Q 276.81238 63.12475 276.85925 63.49975 L 276.90613 63.49975 Q 276.953 63.281 277.0155 62.952873 Q 277.09363 62.62475 277.17175 62.265373 Q 277.24988 61.906 277.34363 61.609123 L 278.48425 57.656 L 279.62488 57.656 L 280.73425 61.609123 Q 280.87488 62.06225 280.99988 62.5935 Q 281.12488 63.109123 281.17175 63.484123 L 281.21863 63.484123 Q 281.24988 63.156 281.37488 62.577873 Q 281.49988 61.99975 281.6405 61.406 L 282.54675 57.656 L 283.62488 57.656 L 281.84363 64.656 L 280.60925 64.656 Z M 287.21313 57.656 Q 288.385 57.656 288.9475 58.2185 Q 289.52563 58.765373 289.52563 59.9685 L 289.52563 64.656 L 288.7444 64.656 L 288.54126 63.577873 L 288.4944 63.577873 Q 288.0725 64.12475 287.60376 64.39037 Q 287.15063 64.656 286.33813 64.656 Q 285.46313 64.656 284.885 64.18725 Q 284.3069 63.7185 284.3069 62.7185 Q 284.3069 61.74975 285.0569 61.2185 Q 285.8225 60.68725 287.40063 60.68725 L 288.4944 60.68725 L 288.4944 60.234123 Q 288.4944 59.296623 288.135 58.93725 Q 287.79126 58.577873 287.15063 58.577873 Q 286.65063 58.577873 286.1975 58.74975 Q 285.7444 58.921623 285.33813 59.140373 L 285.02563 58.265373 Q 285.4475 58.015373 286.01 57.8435 Q 286.58813 57.656 287.21313 57.656 Z M 287.52563 61.609123 Q 286.3225 61.609123 285.85376 61.921623 Q 285.40063 62.2185 285.40063 62.781 Q 285.40063 63.281 285.72876 63.515373 Q 286.0569 63.734123 286.5725 63.734123 Q 287.40063 63.734123 287.9319 63.3435 Q 288.47876 62.93725 288.47876 62.109123 L 288.47876 61.609123 Z M 290.50763 57.656 L 291.63263 57.656 L 293.02325 61.62475 Q 293.21075 62.156 293.35138 62.62475 Q 293.492 63.0935 293.57013 63.531 L 293.617 63.531 Q 293.6795 63.202873 293.83575 62.68725 Q 293.992 62.156 294.16388 61.609123 L 295.47638 57.656 L 296.617 57.656 L 293.83575 65.51537 Q 293.50763 66.49975 292.96075 67.07787 Q 292.4295 67.656 291.50763 67.656 Q 291.21075 67.656 290.992 67.62475 Q 290.77325 67.60912 290.617 67.57787 L 290.617 66.67162 Q 290.75763 66.68725 290.94513 66.70287 Q 291.13263 66.73412 291.33575 66.73412 Q 291.88263 66.73412 292.22638 66.406 Q 292.57013 66.07787 292.75763 65.531 L 293.10138 64.64037 Z " fill="#111" stroke="none" />
<text class="" x="248" y="39" text-anchor="start" dominant-baseline="hanging" font-family="sans-serif" fill="#111" font-size="12" fill-opacity="0"><tspan x="248" dy="14">Gateway</tspan></text>
</g>
<g class="task">
            <use href="#task-box" x="264" y="140" stroke="#222" fill="#fff" width="100" height="80" stroke-width="2" />
            
<path d="M 311.875 184.656 L 310.79688 184.656 L 310.79688 176.57788 L 308.125 176.57788 L 308.125 175.656 L 314.54688 175.656 L 314.54688 176.57788 L 311.875 176.57788 Z M 318.93762 184.656 L 317.90637 184.656 L 317.90637 178.3435 Q 317.90637 177.81226 317.90637 177.48413 Q 317.922 177.156 317.95325 176.79663 Q 317.75012 176.99976 317.59387 177.14038 Q 317.43762 177.281 317.20325 177.49976 L 316.297 178.281 L 315.7345 177.54663 L 318.06262 175.656 L 318.93762 175.656 Z " fill="#111" stroke="none" />
<text class="" x="308" y="159" text-anchor="start" dominant-baseline="hanging" font-family="sans-serif" fill="#111" font-size="12" fill-opacity="0"><tspan x="308" dy="14">T1</tspan></text>
</g>
<g class="task">
            <use href="#task-box" x="424" y="45" stroke="#222" fill="#fff" width="100" height="80" stroke-width="2" />
            
<path d="M 471.875 89.656 L 470.79688 89.656 L 470.79688 81.57787 L 468.125 81.57787 L 468.125 80.656 L 474.54688 80.656 L 474.54688 81.57787 L 471.875 81.57787 Z M 480.90637 89.656 L 475.25012 89.656 L 475.25012 88.8435 L 477.4845 86.45287 Q 478.14075 85.781 478.57825 85.24975 Q 479.03137 84.7185 479.25012 84.2185 Q 479.4845 83.70287 479.4845 83.0935 Q 479.4845 82.3435 479.06262 81.9685 Q 478.64075 81.57787 477.96887 81.57787 Q 477.34387 81.57787 476.87512 81.81225 Q 476.40637 82.031 475.90637 82.43725 L 475.34387 81.67162 Q 475.84387 81.24975 476.50012 80.95287 Q 477.15637 80.656 477.96887 80.656 Q 479.172 80.656 479.8595 81.29662 Q 480.56262 81.93725 480.56262 83.04662 Q 480.56262 83.76537 480.28137 84.39037 Q 480.01575 84.99975 479.51575 85.60912 Q 479.03137 86.20287 478.37512 86.87475 L 476.57825 88.73412 L 476.57825 88.73412 L 480.90637 88.73412 Z " fill="#111" stroke="none" />
<text class="" x="468" y="64" text-anchor="start" dominant-baseline="hanging" font-family="sans-serif" fill="#111" font-size="12" fill-opacity="0"><tspan x="468" dy="14">T2</tspan></text>
</g>

<g class="event event-thick event-throwing event-blank">
  <use href="#event-thick" x="296" y="310" width="36" height="36" stroke="#222" fill="#fff"/>
  <use href="#event-blank-throwing" x="296" y="310" width="36" height="36" stroke="none" fill="#222"/>

<path d="M 304.95313 365.656 L 300.15625 365.656 L 300.15625 356.656 L 304.95313 356.656 L 304.95313 357.57788 L 301.25 357.57788 L 301.25 360.68726 L 304.73438 360.68726 L 304.73438 361.60913 L 301.25 361.60913 L 301.25 364.73413 L 304.95313 364.73413 Z M 309.7814 358.656 Q 310.93765 358.656 311.51578 359.24976 Q 312.10953 359.8435 312.10953 361.18726 L 312.10953 365.656 L 311.07828 365.656 L 311.07828 361.23413 Q 311.07828 359.57788 309.62515 359.57788 Q 308.56265 359.57788 308.1564 360.2185 Q 307.75015 360.85913 307.75015 362.07788 L 307.75015 365.656 L 306.68765 365.656 L 306.68765 358.656 L 307.54703 358.656 L 307.70328 359.7185 L 307.76578 359.7185 Q 308.07828 359.18726 308.62515 358.92163 Q 309.17203 358.656 309.7814 358.656 Z M 316.3849 365.656 Q 315.18176 365.656 314.463 364.781 Q 313.74426 363.906 313.74426 362.17163 Q 313.74426 360.43726 314.463 359.54663 Q 315.1974 358.656 316.4005 358.656 Q 317.1505 358.656 317.61926 358.9685 Q 318.088 359.26538 318.3849 359.70288 L 318.463 359.70288 Q 318.4474 359.531 318.41614 359.17163 Q 318.3849 358.81226 318.3849 358.60913 L 318.3849 355.656 L 319.4474 355.656 L 319.4474 365.656 L 318.60364 365.656 L 318.4474 364.62476 L 318.3849 364.62476 Q 318.10364 365.04663 317.61926 365.35913 Q 317.1505 365.656 316.3849 365.656 Z M 316.55676 364.73413 Q 317.5724 364.73413 317.97864 364.156 Q 318.4005 363.56226 318.4005 362.37476 L 318.4005 362.18726 Q 318.4005 360.92163 318.0099 360.24976 Q 317.61926 359.57788 316.54114 359.57788 Q 315.6974 359.57788 315.2599 360.29663 Q 314.838 360.99976 314.838 362.18726 Q 314.838 363.406 315.2599 364.07788 Q 315.6974 364.73413 316.55676 364.73413 Z M 327.85364 365.656 L 326.8224 365.656 L 326.8224 359.3435 Q 326.8224 358.81226 326.8224 358.48413 Q 326.838 358.156 326.86926 357.79663 Q 326.66614 357.99976 326.5099 358.14038 Q 326.35364 358.281 326.11926 358.49976 L 325.213 359.281 L 324.6505 358.54663 L 326.97864 356.656 L 327.85364 356.656 Z " fill="#111" stroke="none" />
<text class="" x="299" y="340" text-anchor="start" dominant-baseline="hanging" font-family="sans-serif" fill="#111" font-size="12" fill-opacity="0"><tspan x="299" dy="14">End 1</tspan></text>
</g>

<g class="event event-thick event-throwing event-blank">
  <use href="#event-thick" x="456" y="310" width="36" height="36" stroke="#222" fill="#fff"/>
  <use href="#event-blank-throwing" x="456" y="310" width="36" height="36" stroke="none" fill="#222"/>

<path d="M 464.95313 365.656 L 460.15625 365.656 L 460.15625 356.656 L 464.95313 356.656 L 464.95313 357.57788 L 461.25 357.57788 L 461.25 360.68726 L 464.73438 360.68726 L 464.73438 361.60913 L 461.25 361.60913 L 461.25 364.73413 L 464.95313 364.73413 Z M 469.7814 358.656 Q 470.93765 358.656 471.51578 359.24976 Q 472.10953 359.8435 472.10953 361.18726 L 472.10953 365.656 L 471.07828 365.656 L 471.07828 361.23413 Q 471.07828 359.57788 469.62515 359.57788 Q 468.56265 359.57788 468.1564 360.2185 Q 467.75015 360.85913 467.75015 362.07788 L 467.75015 365.656 L 466.68765 365.656 L 466.68765 358.656 L 467.54703 358.656 L 467.70328 359.7185 L 467.76578 359.7185 Q 468.07828 359.18726 468.62515 358.92163 Q 469.17203 358.656 469.7814 358.656 Z M 476.3849 365.656 Q 475.18176 365.656 474.463 364.781 Q 473.74426 363.906 473.74426 362.17163 Q 473.74426 360.43726 474.463 359.54663 Q 475.1974 358.656 476.4005 358.656 Q 477.1505 358.656 477.61926 358.9685 Q 478.088 359.26538 478.3849 359.70288 L 478.463 359.70288 Q 478.4474 359.531 478.41614 359.17163 Q 478.3849 358.81226 478.3849 358.60913 L 478.3849 355.656 L 479.4474 355.656 L 479.4474 365.656 L 478.60364 365.656 L 478.4474 364.62476 L 478.3849 364.62476 Q 478.10364 365.04663 477.61926 365.35913 Q 477.1505 365.656 476.3849 365.656 Z M 476.55676 364.73413 Q 477.5724 364.73413 477.97864 364.156 Q 478.4005 363.56226 478.4005 362.37476 L 478.4005 362.18726 Q 478.4005 360.92163 478.0099 360.24976 Q 477.61926 359.57788 476.54114 359.57788 Q 475.6974 359.57788 475.2599 360.29663 Q 474.838 360.99976 474.838 362.18726 Q 474.838 363.406 475.2599 364.07788 Q 475.6974 364.73413 476.55676 364.73413 Z M 489.8224 365.656 L 484.16614 365.656 L 484.16614 364.8435 L 486.4005 362.45288 Q 487.05676 361.781 487.49426 361.24976 Q 487.9474 360.7185 488.16614 360.2185 Q 488.4005 359.70288 488.4005 359.0935 Q 488.4005 358.3435 487.97864 357.9685 Q 487.55676 357.57788 486.8849 357.57788 Q 486.2599 357.57788 485.79114 357.81226 Q 485.3224 358.031 484.8224 358.43726 L 484.2599 357.67163 Q 484.7599 357.24976 485.41614 356.95288 Q 486.0724 356.656 486.8849 356.656 Q 488.088 356.656 488.7755 357.29663 Q 489.47864 357.93726 489.47864 359.04663 Q 489.47864 359.76538 489.1974 360.39038 Q 488.93176 360.99976 488.43176 361.60913 Q 487.9474 362.20288 487.29114 362.87476 L 485.49426 364.73413 L 485.49426 364.73413 L 489.8224 364.73413 Z " fill="#111" stroke="none" />
<text class="" x="459" y="340" text-anchor="start" dominant-baseline="hanging" font-family="sans-serif" fill="#111" font-size="12" fill-opacity="0"><tspan x="459" dy="14">End 2</tspan></text>
</g>
<path d="M172 85 L282 85 " fill="none" stroke="#222" stroke-width="2" class="sequence-flow" marker-end="url(#sequence-flow-head)" />
<path d="M314 110 L314 133 " fill="none" stroke="#222" stroke-width="2" class="sequence-flow" marker-end="url(#sequence-flow-head)" />
<path d="M339 85 L417 85 " fill="none" stroke="#222" stroke-width="2" class="sequence-flow" marker-end="url(#sequence-flow-head)" />
<path d="M314 220 L314 303 " fill="none" stroke="#222" stroke-width="2" class="sequence-flow" marker-end="url(#sequence-flow-head)" />
<path d="M474 125 L474 303 " fill="none" stroke="#222" stroke-width="2" class="sequence-flow" marker-end="url(#sequence-flow-head)" />

</svg>
