<svg xmlns="https://www.w3.org/2000/svg" width="1012" height="785"><defs><marker id="a" markerHeight="10" markerWidth="10" orient="auto" refX="11" refY="10" viewBox="0 0 20 20"><path d="m1 5 10 5-10 5Z" style="stroke-width:1px;stroke-linecap:round;stroke-dasharray:10000px,1px"/></marker></defs><g class="djs-wrapper"><g class="djs-group djs-shape" data-element-id="sid-306C04D9-C8C7-479D-9F07-4EBB90FA9EA4"><path fill="none" d="M-2 0h982v441H-2z" class="djs-outline"/><path fill="none" d="M0 0h972v431H0z" class="djs-hit" style="stroke-opacity:0;pointer-events:stroke;stroke-width:10px" transform="translate(3 5)"/><g class="djs-visual" transform="translate(3 5)"><rect width="972" height="431" fill="none" stroke="#000" rx="0" ry="0" style="stroke-width:2px"/><path fill="none" stroke="#000" d="M30 0v431" style="stroke-width:2px"/><text x="168.5" y="18.75" class="djs-label" style="font-family:Arial,sans-serif;font-size:12px" transform="matrix(0 -1 1 0 0 431)">order processing</text></g></g><g fill="none" class="djs-group djs-shape" data-element-id="sid-B303694D-4086-400E-AB80-CD2692203F0D"><path d="M28 0h952v441H28z" class="djs-outline"/><path d="M0 0h942v431H0z" class="djs-hit" style="stroke-opacity:0;pointer-events:stroke;stroke-width:10px" transform="translate(33 5)"/><rect width="942" height="431" stroke="#000" class="djs-visual" rx="0" ry="0" style="stroke-width:2px" transform="translate(33 5)"/></g><g class="djs-group djs-shape" data-element-id="sid-A3640F22-7786-4FB4-AAE9-EDFAD5495AF4"><path fill="none" d="M50 46h40v40H50z" class="djs-outline"/><path fill="none" d="M0 0h30v30H0z" class="djs-hit" style="stroke-opacity:0;pointer-events:stroke;stroke-width:10px" transform="translate(55 51)"/><g stroke="#000" class="djs-visual" transform="translate(55 51)"><circle cx="15" cy="15" r="15" fill="#fff" style="stroke-width:2px"/><path fill="none" d="M7.05 9.45v10.5H22.8V9.45zl7.875 4.5 7.875-4.5" style="stroke-width:1px"/></g></g><g class="djs-group djs-shape" data-element-id="sid-A3640F22-7786-4FB4-AAE9-EDFAD5495AF4_label"><path fill="none" d="M44 104h52v38H44z" class="djs-outline"/><path fill="none" d="M24 8h42v28H24z" class="djs-hit" style="stroke-opacity:0;pointer-events:stroke;stroke-width:10px" transform="translate(25 101)"/><g class="djs-visual"><g class="djs-label" style="font-family:Arial,sans-serif;font-size:11px"><text x="32" y="19" transform="translate(25 101)">order</text><text x="24" y="33" transform="translate(25 101)">received</text></g></g></g><g class="djs-group djs-shape" data-element-id="sid-D79DC219-85E2-4027-80B9-42E08850E5E6"><path fill="none" d="M129 20h110v90H129z" class="djs-outline"/><path fill="none" d="M0 0h100v80H0z" class="djs-hit" style="stroke-opacity:0;pointer-events:stroke;stroke-width:10px" transform="translate(134 25)"/><g class="djs-visual" transform="translate(134 25)"><rect width="100" height="80" fill="#fff" stroke="#000" rx="10" ry="10" style="stroke-width:2px"/><g class="djs-label" style="font-family:Arial,sans-serif;font-size:12px"><text x="34" y="36.25">check</text><text x="22" y="51.25">availability</text></g></g></g><g class="djs-group djs-shape" data-element-id="sid-A10FF183-A501-4BB7-925C-FCA549D85FFF"><path fill="none" d="M260 41h50v50h-50z" class="djs-outline"/><path fill="none" d="M0 0h40v40H0z" class="djs-hit" style="stroke-opacity:0;pointer-events:stroke;stroke-width:10px" transform="translate(265 46)"/><g stroke="#000" class="djs-visual"><path fill="#fff" d="m20 0 20 20-20 20L0 20z" style="stroke-width:2px" transform="translate(265 46)"/><path d="m12.8 12 5.94285714 7.77142857L12.8 27.54285714h2.74285714l4.57142857-5.97138285 4.57142858 5.97138285h2.74285714l-5.94285714-7.77142857L27.42857143 12h-2.74285714l-4.57142858 5.97138286L15.54285714 12H12.8z" style="stroke-width:1px" transform="translate(265 46)"/></g></g><g class="djs-group djs-shape" data-element-id="sid-A10FF183-A501-4BB7-925C-FCA549D85FFF_label"><path fill="none" d="M256 109h58v38h-58z" class="djs-outline"/><path fill="none" d="M21 8h48v28H21z" class="djs-hit" style="stroke-opacity:0;pointer-events:stroke;stroke-width:10px" transform="translate(240 106)"/><g class="djs-visual"><g class="djs-label" style="font-family:Arial,sans-serif;font-size:11px"><text x="30.5" y="-75" transform="translate(240 106)">article</text><text x="21" y="-65" transform="translate(240 106)">available?</text></g></g></g><g class="djs-group djs-shape" data-element-id="sid-46FE8DC9-ED12-451B-B9BD-5DD2326EB73F"><path fill="none" d="M574 21h110v90H574z" class="djs-outline"/><path fill="none" d="M0 0h100v80H0z" class="djs-hit" style="stroke-opacity:0;pointer-events:stroke;stroke-width:10px" transform="translate(579 26)"/><g class="djs-visual" transform="translate(579 26)"><rect width="100" height="80" fill="#fff" stroke="#000" rx="10" ry="10" style="stroke-width:2px"/><text x="20" y="43.75" class="djs-label" style="font-family:Arial,sans-serif;font-size:12px">ship article</text></g></g><g class="djs-group djs-shape" data-element-id="sid-C789870F-C29E-4BAE-B631-8AC3F4FA0316"><path fill="none" d="M747 21h110v90H747z" class="djs-outline"/><path fill="none" d="M0 0h100v80H0z" class="djs-hit" style="stroke-opacity:0;pointer-events:stroke;stroke-width:10px" transform="translate(752 26)"/><g class="djs-visual" transform="translate(752 26)"><rect width="100" height="80" fill="#fff" stroke="#000" rx="10" ry="10" style="stroke-width:2px"/><g class="djs-label" style="font-family:Arial,sans-serif;font-size:12px"><text x="27" y="36.25">financial</text><text x="13" y="51.25">management</text></g><rect width="14" height="14" fill="#fff" stroke="#000" rx="0" ry="0" style="stroke-width:1px" transform="translate(42.5 60)"/><path fill="none" stroke="#000" d="M49.5 62v10m-5-5h10" style="stroke-width:2px"/></g></g><g class="djs-group djs-shape" data-element-id="sid-A72B8963-3F24-432C-93F8-6EA471838E8B"><path fill="none" d="M900 47h38v38h-38z" class="djs-outline"/><path fill="none" d="M0 0h28v28H0z" class="djs-hit" style="stroke-opacity:0;pointer-events:stroke;stroke-width:10px" transform="translate(905 52)"/><circle cx="14" cy="14" r="14" fill="#fff" stroke="#000" class="djs-visual" style="stroke-width:4px" transform="translate(905 52)"/></g><g class="djs-group djs-shape" data-element-id="sid-A72B8963-3F24-432C-93F8-6EA471838E8B_label"><path fill="none" d="M905 103h28v24h-28z" class="djs-outline"/><path fill="none" d="M36 8h18v14H36z" class="djs-hit" style="stroke-opacity:0;pointer-events:stroke;stroke-width:10px" transform="translate(874 100)"/><g class="djs-visual"><text x="36" y="19" class="djs-label" style="font-family:Arial,sans-serif;font-size:11px" transform="translate(874 100)">end</text></g></g><g class="djs-group djs-shape" data-element-id="sid-FFA7BE8B-C2EA-4688-A537-C802C6C96A90"><path fill="none" d="M470 326h110v90H470z" class="djs-outline"/><path fill="none" d="M0 0h100v80H0z" class="djs-hit" style="stroke-opacity:0;pointer-events:stroke;stroke-width:10px" transform="translate(475 331)"/><g class="djs-visual" transform="translate(475 331)"><rect width="100" height="80" fill="#fff" stroke="#000" rx="10" ry="10" style="stroke-width:2px"/><g class="djs-label" style="font-family:Arial,sans-serif;font-size:12px"><text x="32.5" y="36.25">inform</text><text x="24" y="51.25">customer</text></g></g></g><g class="djs-group djs-shape" data-element-id="sid-6B0FC865-57A9-458C-92BF-773C783F43D2"><path fill="none" d="M620 326h110v90H620z" class="djs-outline"/><path fill="none" d="M0 0h100v80H0z" class="djs-hit" style="stroke-opacity:0;pointer-events:stroke;stroke-width:10px" transform="translate(625 331)"/><g class="djs-visual" transform="translate(625 331)"><rect width="100" height="80" fill="#fff" stroke="#000" rx="10" ry="10" style="stroke-width:2px"/><g class="djs-label" style="font-family:Arial,sans-serif;font-size:12px"><text x="15" y="36.25">delete article</text><text x="9" y="51.25">from catalogue</text></g></g></g><g class="djs-group djs-shape" data-element-id="sid-928DA5B1-9AFE-4692-A7BC-58D10582B8BA"><path fill="none" d="M770 352h38v38h-38z" class="djs-outline"/><path fill="none" d="M0 0h28v28H0z" class="djs-hit" style="stroke-opacity:0;pointer-events:stroke;stroke-width:10px" transform="translate(775 357)"/><circle cx="14" cy="14" r="14" fill="#fff" stroke="#000" class="djs-visual" style="stroke-width:4px" transform="translate(775 357)"/></g><g class="djs-group djs-shape" data-element-id="sid-928DA5B1-9AFE-4692-A7BC-58D10582B8BA_label"><path fill="none" d="M775 408h28v24h-28z" class="djs-outline"/><path fill="none" d="M36 8h18v14H36z" class="djs-hit" style="stroke-opacity:0;pointer-events:stroke;stroke-width:10px" transform="translate(744 405)"/><g class="djs-visual"><text x="36" y="19" class="djs-label" style="font-family:Arial,sans-serif;font-size:11px" transform="translate(744 405)">end</text></g></g><g class="djs-group djs-shape" data-element-id="sid-76E16027-D23A-42FC-9595-E445EC5E0870"><path fill="none" d="M350 131h110v90H350z" class="djs-outline"/><path fill="none" d="M0 0h100v80H0z" class="djs-hit" style="stroke-opacity:0;pointer-events:stroke;stroke-width:10px" transform="translate(355 136)"/><g class="djs-visual" transform="translate(355 136)"><rect width="100" height="80" fill="#fff" stroke="#000" rx="10" ry="10" style="stroke-width:5px"/><text x="15" y="20" class="djs-label" style="font-family:Arial,sans-serif;font-size:12px">procurement</text></g></g><g class="djs-group djs-shape" data-element-id="sid-85537078-4B5F-4C32-A273-E37759E6944F"><path fill="none" d="M620 215h110v90H620z" class="djs-outline"/><path fill="none" d="M0 0h100v80H0z" class="djs-hit" style="stroke-opacity:0;pointer-events:stroke;stroke-width:10px" transform="translate(625 220)"/><g class="djs-visual" transform="translate(625 220)"><rect width="100" height="80" fill="#fff" stroke="#000" rx="10" ry="10" style="stroke-width:2px"/><g class="djs-label" style="font-family:Arial,sans-serif;font-size:12px"><text x="32.5" y="36.25">inform</text><text x="24" y="51.25">customer</text></g></g></g><g class="djs-group djs-shape" data-element-id="sid-D310E71B-75BD-4A05-BE8F-066EA7DE0335"><path fill="none" d="M770 241h38v38h-38z" class="djs-outline"/><path fill="none" d="M0 0h28v28H0z" class="djs-hit" style="stroke-opacity:0;pointer-events:stroke;stroke-width:10px" transform="translate(775 246)"/><circle cx="14" cy="14" r="14" fill="#fff" stroke="#000" class="djs-visual" style="stroke-width:4px" transform="translate(775 246)"/></g><g class="djs-group djs-shape" data-element-id="sid-D310E71B-75BD-4A05-BE8F-066EA7DE0335_label"><path fill="none" d="M775 297h28v24h-28z" class="djs-outline"/><path fill="none" d="M36 8h18v14H36z" class="djs-hit" style="stroke-opacity:0;pointer-events:stroke;stroke-width:10px" transform="translate(744 294)"/><g class="djs-visual"><text x="36" y="19" class="djs-label" style="font-family:Arial,sans-serif;font-size:11px" transform="translate(744 294)">end</text></g></g><g class="djs-group djs-shape" data-element-id="sid-F6BA519A-2633-47C9-ADC7-FAB85AD8B300"><path fill="none" d="M356.1429 196h40v40h-40z" class="djs-outline"/><path fill="none" d="M0 0h30v30H0z" class="djs-hit" style="stroke-opacity:0;pointer-events:stroke;stroke-width:10px" transform="translate(361.1429 201)"/><g stroke="#000" class="djs-visual" transform="translate(361.1429 201)"><circle cx="15" cy="15" r="15" fill="#fff" style="stroke-width:1px"/><circle cx="15" cy="15" r="12" fill="#fff" style="stroke-width:1px"/><path fill="none" d="m6 21.66.07791667-.02108333 6.116-8.00891667 6.38916666 7.47175L22.5 5.91808333 17.60775 15.6265l-6.083-7.98783333z" style="stroke-width:1px"/></g></g><g class="djs-group djs-shape" data-element-id="sid-F6BA519A-2633-47C9-ADC7-FAB85AD8B300_label"><path fill="none" d="M341.1429 254h70v24h-70z" class="djs-outline"/><path fill="none" d="M15 8h60v14H15z" class="djs-hit" style="stroke-opacity:0;pointer-events:stroke;stroke-width:10px" transform="translate(331.1429 251)"/><g class="djs-visual"><text x="-20" y="19" class="djs-label" style="font-family:Arial,sans-serif;font-size:11px" transform="translate(331.1429 251)">not available</text></g></g><g class="djs-group djs-shape" data-element-id="sid-E8C55FCF-9FDA-401E-9840-B51ACBA91A0F"><path fill="none" d="M321 460h659v297H321z" class="djs-outline"/><path fill="none" d="M0 0h649v287H0z" class="djs-hit" style="stroke-opacity:0;pointer-events:stroke;stroke-width:10px" transform="translate(326 465)"/><g class="djs-visual" transform="translate(326 465)"><rect width="649" height="287" fill="none" stroke="#000" rx="0" ry="0" style="stroke-width:2px"/><path fill="none" stroke="#000" d="M30 0v287" style="stroke-width:2px"/><text x="108.5" y="18.75" class="djs-label" style="font-family:Arial,sans-serif;font-size:12px" transform="matrix(0 -1 1 0 0 287)">procurement</text></g></g><g fill="none" class="djs-group djs-shape" data-element-id="sid-D0E6EE74-95F4-431B-A5C2-D8CB4951D91B"><path d="M351 460h629v297H351z" class="djs-outline"/><path d="M0 0h619v287H0z" class="djs-hit" style="stroke-opacity:0;pointer-events:stroke;stroke-width:10px" transform="translate(356 465)"/><rect width="619" height="287" stroke="#000" class="djs-visual" rx="0" ry="0" style="stroke-width:2px" transform="translate(356 465)"/></g><g class="djs-group djs-shape" data-element-id="sid-E444B937-7E68-41FE-BE54-2F85356F982C"><path fill="none" d="M384 503h40v40h-40z" class="djs-outline"/><path fill="none" d="M0 0h30v30H0z" class="djs-hit" style="stroke-opacity:0;pointer-events:stroke;stroke-width:10px" transform="translate(389 508)"/><circle cx="15" cy="15" r="15" fill="#fff" stroke="#000" class="djs-visual" style="stroke-width:2px" transform="translate(389 508)"/></g><g class="djs-group djs-shape" data-element-id="sid-E444B937-7E68-41FE-BE54-2F85356F982C_label"><path fill="none" d="M388 561h32v24h-32z" class="djs-outline"/><path fill="none" d="M34 8h22v14H34z" class="djs-hit" style="stroke-opacity:0;pointer-events:stroke;stroke-width:10px" transform="translate(359 558)"/><g class="djs-visual"><text x="34" y="19" class="djs-label" style="font-family:Arial,sans-serif;font-size:11px" transform="translate(359 558)">start</text></g></g><g class="djs-group djs-shape" data-element-id="sid-57E61523-D549-46B4-8A2C-44FE4767A4DA"><path fill="none" d="M455 478h110v90H455z" class="djs-outline"/><path fill="none" d="M0 0h100v80H0z" class="djs-hit" style="stroke-opacity:0;pointer-events:stroke;stroke-width:10px" transform="translate(460 483)"/><g class="djs-visual" transform="translate(460 483)"><rect width="100" height="80" fill="#fff" stroke="#000" rx="10" ry="10" style="stroke-width:2px"/><text x="19" y="43.75" class="djs-label" style="font-family:Arial,sans-serif;font-size:12px">place order</text></g></g><g class="djs-group djs-shape" data-element-id="sid-B15C6DC1-3890-405E-9BAF-07C634AD3C8B"><path fill="none" d="M597 498h50v50h-50z" class="djs-outline"/><path fill="none" d="M0 0h40v40H0z" class="djs-hit" style="stroke-opacity:0;pointer-events:stroke;stroke-width:10px" transform="translate(602 503)"/><g stroke="#000" class="djs-visual"><path fill="#fff" d="m20 0 20 20-20 20L0 20z" style="stroke-width:2px" transform="translate(602 503)"/><path d="m12.8 12 5.94285714 7.77142857L12.8 27.54285714h2.74285714l4.57142857-5.97138285 4.57142858 5.97138285h2.74285714l-5.94285714-7.77142857L27.42857143 12h-2.74285714l-4.57142858 5.97138286L15.54285714 12H12.8z" style="stroke-width:1px" transform="translate(602 503)"/></g></g><g class="djs-group djs-shape" data-element-id="sid-B15C6DC1-3890-405E-9BAF-07C634AD3C8B_label"><path fill="none" d="M593 566h58v24h-58z" class="djs-outline"/><path fill="none" d="M21 8h48v14H21z" class="djs-hit" style="stroke-opacity:0;pointer-events:stroke;stroke-width:10px" transform="translate(577 563)"/><g class="djs-visual"><text x="21" y="-70" class="djs-label" style="font-family:Arial,sans-serif;font-size:11px" transform="translate(577 563)">available?</text></g></g><g class="djs-group djs-shape" data-element-id="sid-9F488A72-26F1-4FAB-BB96-C2006C9B4DCA"><path fill="none" d="M770 478h110v90H770z" class="djs-outline"/><path fill="none" d="M0 0h100v80H0z" class="djs-hit" style="stroke-opacity:0;pointer-events:stroke;stroke-width:10px" transform="translate(775 483)"/><g class="djs-visual" transform="translate(775 483)"><rect width="100" height="80" fill="#fff" stroke="#000" rx="10" ry="10" style="stroke-width:2px"/><text x="10.5" y="43.75" class="djs-label" style="font-family:Arial,sans-serif;font-size:12px">expect delivery</text></g></g><g class="djs-group djs-shape" data-element-id="sid-B3261BED-62D8-497E-8EF1-EA4389BFC068"><path fill="none" d="M900 497.75h60v50.5h-60z" class="djs-outline"/><path fill="none" d="M0 0h50v40.5H0z" class="djs-hit" style="stroke-opacity:0;pointer-events:stroke;stroke-width:10px" transform="translate(905 502.75)"/><g class="djs-visual" transform="translate(905 502.75)"><rect width="50" height="40.5" fill="#fff" stroke="#000" rx="10" ry="10" style="stroke-width:2px"/><text x="20.5" y="24" class="djs-label" style="font-family:Arial,sans-serif;font-size:12px">...</text></g></g><g class="djs-group djs-shape" data-element-id="sid-9E9916E2-CC3E-46D8-A280-3D31149096B0"><path fill="none" d="M683 676h38v38h-38z" class="djs-outline"/><path fill="none" d="M0 0h28v28H0z" class="djs-hit" style="stroke-opacity:0;pointer-events:stroke;stroke-width:10px" transform="translate(688 681)"/><g stroke="#000" class="djs-visual" transform="translate(688 681)"><circle cx="14" cy="14" r="14" fill="#fff" style="stroke-width:4px"/><path d="m5.6 20.216.07272222-.01967778 5.70826667-7.47498889 5.96322222 6.97363334L21 5.52354444l-4.5661 9.0611889-5.67746667-7.45531112z" style="stroke-width:1px"/></g></g><g class="djs-group djs-shape" data-element-id="sid-9E9916E2-CC3E-46D8-A280-3D31149096B0_label"><path fill="none" d="M676 732h52v38h-52z" class="djs-outline"/><path fill="none" d="M24 8h42v28H24z" class="djs-hit" style="stroke-opacity:0;pointer-events:stroke;stroke-width:10px" transform="translate(657 729)"/><g class="djs-visual"><g class="djs-label" style="font-family:Arial,sans-serif;font-size:11px"><text x="37.5" transform="translate(657 729)">not</text><text x="24" y="10" transform="translate(657 729)">available</text></g></g></g><g class="djs-group djs-shape" data-element-id="sid-028E111C-D834-48CE-8D68-AAD6B3C65DAE"><path fill="none" d="M682 590h40v40h-40z" class="djs-outline"/><path fill="none" d="M0 0h30v30H0z" class="djs-hit" style="stroke-opacity:0;pointer-events:stroke;stroke-width:10px" transform="translate(687 595)"/><g stroke="#000" class="djs-visual" transform="translate(687 595)"><circle cx="15" cy="15" r="15" fill="#fff" style="stroke-width:1px"/><circle cx="15" cy="15" r="12" fill="#fff" style="stroke-width:1px"/><path d="m15 16.65-7.02 5.955c2.34-5.49111083 4.68-10.9822225 7.02-16.47333333C17.0525 11.6227775 19.105 17.11388917 21.1575 22.605L15 16.65z" style="stroke-width:1px"/></g></g><g class="djs-group djs-shape" data-element-id="sid-028E111C-D834-48CE-8D68-AAD6B3C65DAE_label"><path fill="none" d="M678 648h48v38h-48z" class="djs-outline"/><path fill="none" d="M26 8h38v28H26z" class="djs-hit" style="stroke-opacity:0;pointer-events:stroke;stroke-width:10px" transform="translate(657 645)"/><g class="djs-visual"><g class="djs-label" style="font-family:Arial,sans-serif;font-size:11px"><text x="36.5" transform="translate(657 645)">late</text><text x="26" y="10" transform="translate(657 645)">delivery</text></g></g></g><g class="djs-group djs-shape" data-element-id="sid-00F87A0B-5AAE-4140-9649-B70D35800DC3"><path fill="none" d="M418.125 196h40v40h-40z" class="djs-outline"/><path fill="none" d="M0 0h30v30H0z" class="djs-hit" style="stroke-opacity:0;pointer-events:stroke;stroke-width:10px" transform="translate(423.125 201)"/><g stroke="#000" class="djs-visual" transform="translate(423.125 201)"><circle cx="15" cy="15" r="15" fill="#fff" style="stroke-width:1px;stroke-linecap:round;stroke-dasharray:6px"/><circle cx="15" cy="15" r="12" fill="#fff" style="stroke-width:1px;stroke-linecap:round;stroke-dasharray:6px"/><path fill="none" d="m15 16.65-7.02 5.955c2.34-5.49111083 4.68-10.9822225 7.02-16.47333333C17.0525 11.6227775 19.105 17.11388917 21.1575 22.605L15 16.65z" style="stroke-width:1px"/></g></g><g class="djs-group djs-shape" data-element-id="sid-00F87A0B-5AAE-4140-9649-B70D35800DC3_label"><path fill="none" d="M404.125 254h68v24h-68z" class="djs-outline"/><path fill="none" d="M16 8h58v14H16z" class="djs-hit" style="stroke-opacity:0;pointer-events:stroke;stroke-width:10px" transform="translate(393.125 251)"/><g class="djs-visual"><text x="16" y="20" class="djs-label" style="font-family:Arial,sans-serif;font-size:11px" transform="translate(393.125 251)">late delivery</text></g></g><g fill="none" class="djs-group djs-connection" data-element-id="sid-A7883339-6B49-40F3-ACB2-36CD7466990D"><path d="m85 70 49-1" class="djs-hit" style="stroke-opacity:0;pointer-events:stroke;stroke-width:10px" transform="translate(0 -4)"/><path stroke="#000" d="m85 70 49-1" class="djs-visual" style="stroke-width:2px;marker-end:url(#a)" transform="translate(0 -4)"/></g><g class="djs-group djs-shape" data-element-id="sid-A7883339-6B49-40F3-ACB2-36CD7466990D_label"><path fill="none" d="M59.5 60.5h10v10h-10z" class="djs-outline"/></g><g fill="none" class="djs-group djs-connection" data-element-id="sid-3DAF62EE-6217-4FD7-8E3C-89B90C805954"><path d="m234 69 31 1" class="djs-hit" style="stroke-opacity:0;pointer-events:stroke;stroke-width:10px" transform="translate(0 -4)"/><path stroke="#000" d="m234 69 31 1" class="djs-visual" style="stroke-width:2px;marker-end:url(#a)" transform="translate(0 -4)"/></g><g class="djs-group djs-shape" data-element-id="sid-3DAF62EE-6217-4FD7-8E3C-89B90C805954_label"><path fill="none" d="M199.5 60.5h10v10h-10z" class="djs-outline"/></g><g fill="none" class="djs-group djs-connection" data-element-id="sid-1763D231-20D2-4939-A603-E840CB1DBFD8"><path d="M679 70h73" class="djs-hit" style="stroke-opacity:0;pointer-events:stroke;stroke-width:10px" transform="translate(0 -4)"/><path stroke="#000" d="M679 70h73" class="djs-visual" style="stroke-width:2px;marker-end:url(#a)" transform="translate(0 -4)"/></g><g class="djs-group djs-shape" data-element-id="sid-1763D231-20D2-4939-A603-E840CB1DBFD8_label"><path fill="none" d="M665.5 61h10v10h-10z" class="djs-outline"/></g><g fill="none" class="djs-group djs-connection" data-element-id="sid-763BA69A-F732-47A7-BF28-C64F03209AC2"><path d="M852 70h53" class="djs-hit" style="stroke-opacity:0;pointer-events:stroke;stroke-width:10px" transform="translate(0 -4)"/><path stroke="#000" d="M852 70h53" class="djs-visual" style="stroke-width:2px;marker-end:url(#a)" transform="translate(0 -4)"/></g><g class="djs-group djs-shape" data-element-id="sid-763BA69A-F732-47A7-BF28-C64F03209AC2_label"><path fill="none" d="M828.5 61h10v10h-10z" class="djs-outline"/></g><g fill="none" class="djs-group djs-connection" data-element-id="sid-C3AEF604-3275-49E2-B4FD-CA6D5EF0139A"><path d="M575 375h50" class="djs-hit" style="stroke-opacity:0;pointer-events:stroke;stroke-width:10px" transform="translate(0 -4)"/><path stroke="#000" d="M575 375h50" class="djs-visual" style="stroke-width:2px;marker-end:url(#a)" transform="translate(0 -4)"/></g><g class="djs-group djs-shape" data-element-id="sid-C3AEF604-3275-49E2-B4FD-CA6D5EF0139A_label"><path fill="none" d="M550 366h10v10h-10z" class="djs-outline"/></g><g fill="none" class="djs-group djs-connection" data-element-id="sid-197A3A25-4F26-4CAB-9BAA-8E126FF00336"><path d="M725 375h50" class="djs-hit" style="stroke-opacity:0;pointer-events:stroke;stroke-width:10px" transform="translate(0 -4)"/><path stroke="#000" d="M725 375h50" class="djs-visual" style="stroke-width:2px;marker-end:url(#a)" transform="translate(0 -4)"/></g><g class="djs-group djs-shape" data-element-id="sid-197A3A25-4F26-4CAB-9BAA-8E126FF00336_label"><path fill="none" d="M700 366h10v10h-10z" class="djs-outline"/></g><g fill="none" class="djs-group djs-connection" data-element-id="sid-32E12707-858E-432A-8548-94F294ABC52F"><path d="m376 235 .14285714 140H475" class="djs-hit" style="stroke-opacity:0;pointer-events:stroke;stroke-width:10px" transform="translate(0 -4)"/><path stroke="#000" d="m376 235 .14285714 140H475" class="djs-visual" style="stroke-width:2px;marker-end:url(#a)" transform="translate(0 -4)"/></g><g class="djs-group djs-shape" data-element-id="sid-32E12707-858E-432A-8548-94F294ABC52F_label"><path fill="none" d="M326.0714 296h10v10h-10z" class="djs-outline"/></g><g fill="none" class="djs-group djs-connection" data-element-id="sid-B232EF0F-911C-4129-8345-2A68C3F0AFFB"><path d="M455 180h255V90h42" class="djs-hit" style="stroke-opacity:0;pointer-events:stroke;stroke-width:10px" transform="translate(0 -4)"/><path stroke="#000" d="M455 180h255V90h42" class="djs-visual" style="stroke-width:2px;marker-end:url(#a)" transform="translate(0 -4)"/></g><g class="djs-group djs-shape" data-element-id="sid-B232EF0F-911C-4129-8345-2A68C3F0AFFB_label"><path fill="none" d="M660 126h10v10h-10z" class="djs-outline"/></g><g fill="none" class="djs-group djs-connection" data-element-id="sid-0B68A4D6-7DCB-4B99-A28D-60A96E4239E4"><path d="m438 235 .125 29H625" class="djs-hit" style="stroke-opacity:0;pointer-events:stroke;stroke-width:10px" transform="translate(0 -4)"/><path stroke="#000" d="m438 235 .125 29H625" class="djs-visual" style="stroke-width:2px;marker-end:url(#a)" transform="translate(0 -4)"/></g><g class="djs-group djs-shape" data-element-id="sid-0B68A4D6-7DCB-4B99-A28D-60A96E4239E4_label"><path fill="none" d="M388.0625 240.5h10v10h-10z" class="djs-outline"/></g><g fill="none" class="djs-group djs-connection" data-element-id="sid-735F8E80-69D2-4830-8F20-65519B22497E"><path d="M725 264h50" class="djs-hit" style="stroke-opacity:0;pointer-events:stroke;stroke-width:10px" transform="translate(0 -4)"/><path stroke="#000" d="M725 264h50" class="djs-visual" style="stroke-width:2px;marker-end:url(#a)" transform="translate(0 -4)"/></g><g class="djs-group djs-shape" data-element-id="sid-735F8E80-69D2-4830-8F20-65519B22497E_label"><path fill="none" d="M700 255h10v10h-10z" class="djs-outline"/></g><g fill="none" class="djs-group djs-connection" data-element-id="sid-865BBCE2-505B-4ACF-B91C-45E10D434F9B"><path d="M305 70h274" class="djs-hit" style="stroke-opacity:0;pointer-events:stroke;stroke-width:10px" transform="translate(0 -4)"/><path stroke="#000" d="M305 70h274" class="djs-visual" style="stroke-width:2px;marker-end:url(#a)" transform="translate(0 -4)"/></g><g class="djs-group djs-shape" data-element-id="sid-865BBCE2-505B-4ACF-B91C-45E10D434F9B_label"><path fill="none" d="M428 69h28v24h-28z" class="djs-outline"/><path fill="none" d="M36 8h18v14H36z" class="djs-hit" style="stroke-opacity:0;pointer-events:stroke;stroke-width:10px" transform="translate(397 66)"/><g class="djs-visual"><text x="36" y="19" class="djs-label" style="font-family:Arial,sans-serif;font-size:11px" transform="translate(397 66)">yes</text></g></g><g fill="none" class="djs-group djs-connection" data-element-id="sid-C149B816-4AC1-4B57-ACD4-6A198BB4884B"><path d="m285 90 .5 90H355" class="djs-hit" style="stroke-opacity:0;pointer-events:stroke;stroke-width:10px" transform="translate(0 -4)"/><path stroke="#000" d="m285 90 .5 90H355" class="djs-visual" style="stroke-width:2px;marker-end:url(#a)" transform="translate(0 -4)"/></g><g class="djs-group djs-shape" data-element-id="sid-C149B816-4AC1-4B57-ACD4-6A198BB4884B_label"><path fill="none" d="M274.25 134h22v24h-22z" class="djs-outline"/><path fill="none" d="M39 8h12v14H39z" class="djs-hit" style="stroke-opacity:0;pointer-events:stroke;stroke-width:10px" transform="translate(240.25 131)"/><g class="djs-visual"><text x="30" y="19" class="djs-label" style="font-family:Arial,sans-serif;font-size:11px" transform="translate(240.25 131)">no</text></g></g><g fill="none" class="djs-group djs-connection" data-element-id="sid-CD2399B5-0DEF-49C3-9245-8E1D0C5A0661"><path d="M419 527h41" class="djs-hit" style="stroke-opacity:0;pointer-events:stroke;stroke-width:10px" transform="translate(0 -4)"/><path stroke="#000" d="M419 527h41" class="djs-visual" style="stroke-width:2px;marker-end:url(#a)" transform="translate(0 -4)"/></g><g class="djs-group djs-shape" data-element-id="sid-CD2399B5-0DEF-49C3-9245-8E1D0C5A0661_label"><path fill="none" d="M389.5 518h10v10h-10z" class="djs-outline"/></g><g fill="none" class="djs-group djs-connection" data-element-id="sid-701F88AB-80C3-4999-BBB3-CDA8B6A13F78"><path d="M560 527h42" class="djs-hit" style="stroke-opacity:0;pointer-events:stroke;stroke-width:10px" transform="translate(0 -4)"/><path stroke="#000" d="M560 527h42" class="djs-visual" style="stroke-width:2px;marker-end:url(#a)" transform="translate(0 -4)"/></g><g class="djs-group djs-shape" data-element-id="sid-701F88AB-80C3-4999-BBB3-CDA8B6A13F78_label"><path fill="none" d="M531 518h10v10h-10z" class="djs-outline"/></g><g fill="none" class="djs-group djs-connection" data-element-id="sid-3D0FA9D0-F9C4-49B0-A691-6EA3B8A6D452"><path d="M875 527h30" class="djs-hit" style="stroke-opacity:0;pointer-events:stroke;stroke-width:10px" transform="translate(0 -4)"/><path stroke="#000" d="M875 527h30" class="djs-visual" style="stroke-width:2px;marker-end:url(#a)" transform="translate(0 -4)"/></g><g class="djs-group djs-shape" data-element-id="sid-3D0FA9D0-F9C4-49B0-A691-6EA3B8A6D452_label"><path fill="none" d="M840 518h10v10h-10z" class="djs-outline"/></g><g fill="none" class="djs-group djs-connection" data-element-id="sid-2E34D7C6-61B6-4EAE-AEA4-1A8343DCB81C"><path d="M642 527h133" class="djs-hit" style="stroke-opacity:0;pointer-events:stroke;stroke-width:10px" transform="translate(0 -4)"/><path stroke="#000" d="M642 527h133" class="djs-visual" style="stroke-width:2px;marker-end:url(#a)" transform="translate(0 -4)"/></g><g class="djs-group djs-shape" data-element-id="sid-2E34D7C6-61B6-4EAE-AEA4-1A8343DCB81C_label"><path fill="none" d="M691.5 526h34v38h-34z" class="djs-outline"/><path fill="none" d="M33 8h24v28H33z" class="djs-hit" style="stroke-opacity:0;pointer-events:stroke;stroke-width:10px" transform="translate(663.5 523)"/><g class="djs-visual"><g class="djs-label" style="font-family:Arial,sans-serif;font-size:11px"><text x="33.5" y="19" transform="translate(663.5 523)">in&lt; 2</text><text x="33" y="33" transform="translate(663.5 523)">days</text></g></g></g><g fill="none" class="djs-group djs-connection" data-element-id="sid-1699703D-BF57-4C93-838F-9FE64B0A60F3"><path d="m632 547 .25404403 67H687" class="djs-hit" style="stroke-opacity:0;pointer-events:stroke;stroke-width:10px" transform="translate(0 -4)"/><path stroke="#000" d="m632 547 .25404403 67H687" class="djs-visual" style="stroke-width:2px;marker-end:url(#a)" transform="translate(0 -4)"/></g><g class="djs-group djs-shape" data-element-id="sid-1699703D-BF57-4C93-838F-9FE64B0A60F3_label"><path fill="none" d="M615.127 579.5h34v38h-34z" class="djs-outline"/><path fill="none" d="M33 8h24v28H33z" class="djs-hit" style="stroke-opacity:0;pointer-events:stroke;stroke-width:10px" transform="translate(587.127 576.5)"/><g class="djs-visual"><g class="djs-label" style="font-family:Arial,sans-serif;font-size:11px"><text x="60" y="10" transform="translate(587.127 576.5)">in&gt; 2</text><text x="60" y="20" transform="translate(587.127 576.5)">days</text></g></g></g><g fill="none" class="djs-group djs-connection" data-element-id="sid-27748FAD-AB1E-4B44-9A8F-80619ACAB188"><path d="m622 547 .5 152H688" class="djs-hit" style="stroke-opacity:0;pointer-events:stroke;stroke-width:10px" transform="translate(0 -4)"/><path stroke="#000" d="m622 547 .5 152H688" class="djs-visual" style="stroke-width:2px;marker-end:url(#a)" transform="translate(0 -4)"/></g><g class="djs-group djs-shape" data-element-id="sid-27748FAD-AB1E-4B44-9A8F-80619ACAB188_label"><path fill="none" d="M611.25 622h22v24h-22z" class="djs-outline"/><path fill="none" d="M39 8h12v14H39z" class="djs-hit" style="stroke-opacity:0;pointer-events:stroke;stroke-width:10px" transform="translate(577.25 619)"/><g class="djs-visual"><text x="30" y="19" class="djs-label" style="font-family:Arial,sans-serif;font-size:11px" transform="translate(577.25 619)">no</text></g></g></g></svg>